<?xml version="1.0" standalone="no"?>
<!DOCTYPE svg PUBLIC "-//W3C//DTD SVG 1.1//EN" "http://www.w3.org/Graphics/SVG/1.1/DTD/svg11.dtd" >
<svg xmlns="http://www.w3.org/2000/svg">
<metadata></metadata>
<defs>
<font id="aldusromanscbook" horiz-adv-x="1024" >
<font-face units-per-em="2048" ascent="1638" descent="-410" />
<missing-glyph horiz-adv-x="512" />
<glyph unicode="&#xfb01;" horiz-adv-x="1366" d="M53 0v39l8 8q117 0 133.5 24.5t16.5 307.5v225q0 211 -16 264q-2 8 -59.5 16.5t-74.5 8.5l-8 8v31l8 8q106 -8 306 -8q205 0 381 8l18 -27q-25 -102 -25 -172l-8 -8h-28l-11 8q-12 96 -14 101q-6 8 -61.5 21.5t-120.5 13.5q-49 0 -131 -15q-8 -127 -9 -385 q47 -10 142 -10q131 0 200 18l7 -6q-18 -41 -23 -78l-10 -8q-47 10 -215 10q-80 0 -101 -4v-65q0 -199 9 -236q2 -6 17 -18t28 -17q49 -16 127 -16l8 -8v-39l-8 -8q-88 8 -252 8q-117 0 -226 -8zM842 0v31l8 8q90 0 113 16q16 10 28 25q17 21 17 211v393q0 162 -29 184 q-8 6 -49 15.5t-80 9.5l-8 8v31l8 8q18 0 101 -4t130 -4t130 4t102 4l8 -8v-31l-8 -8q-39 0 -80 -9.5t-49 -15.5q-29 -23 -29 -184v-393q0 -190 16 -211q12 -14 29 -25q23 -16 113 -16l8 -8v-31l-8 -8q-18 0 -101.5 4t-130.5 4t-130 -4t-101 -4z" />
<glyph unicode="&#xfb02;" horiz-adv-x="1705" d="M53 0v39l8 8q117 0 133.5 24.5t16.5 307.5v225q0 211 -16 264q-2 8 -59.5 16.5t-74.5 8.5l-8 8v31l8 8q106 -8 306 -8q205 0 381 8l18 -27q-25 -102 -25 -172l-8 -8h-28l-11 8q-12 96 -14 101q-6 8 -61.5 21.5t-120.5 13.5q-49 0 -131 -15q-8 -127 -9 -385 q47 -10 142 -10q131 0 200 18l7 -6q-18 -41 -23 -78l-10 -8q-47 10 -215 10q-80 0 -101 -4v-65q0 -199 9 -236q2 -6 17 -18t28 -17q49 -16 127 -16l8 -8v-39l-8 -8q-88 8 -252 8q-117 0 -226 -8zM881 901v31l8 8q8 0 92 -4t131 -4q45 0 129 4t115 4l8 -8v-31l-8 -8 q-12 0 -59.5 -6t-57.5 -10q-31 -12 -39 -31q-14 -29 -14 -207v-360q0 -143 6 -203q82 -12 194 -13q70 0 138 13q41 66 67 151l8 6h33l6 -8q-23 -117 -26 -219l-15 -14q-139 8 -358 8q-182 0 -295 -8l-8 8v31l8 8q59 10 78 31q16 20 16 327v262q0 164 -6 179q-14 29 -31 36 q-31 18 -112 19z" />
<glyph horiz-adv-x="2048" />
<glyph horiz-adv-x="2048" />
<glyph unicode="&#xd;" horiz-adv-x="681" />
<glyph unicode=" "  horiz-adv-x="512" />
<glyph unicode="&#x09;" horiz-adv-x="512" />
<glyph unicode="&#xa0;" horiz-adv-x="512" />
<glyph unicode="!" horiz-adv-x="794" d="M291 90q0 45 30.5 76t75.5 31t76 -31t31 -76t-31 -75.5t-76 -30.5t-75.5 30.5t-30.5 75.5zM301 1311q0 86 96.5 86t96.5 -86q0 -18 -9 -129l-57 -760q-2 -23 -3 -41.5t-4 -32.5t-8 -21.5t-15.5 -7.5t-15.5 7.5t-8 21.5t-4 32.5t-3 41.5l-58 760q-8 111 -8 129z" />
<glyph unicode="&#x22;" d="M274 1325q0 27 18.5 53.5t55.5 26.5t55.5 -26.5t18.5 -53.5q0 -31 -6 -94l-25 -313q-4 -57 -43 -57t-43 57l-24 313q-6 63 -7 94zM602 1325q0 27 18.5 53.5t55.5 26.5t55.5 -26.5t18.5 -53.5q0 -31 -7 -94l-24 -313q-4 -57 -43 -57t-43 57l-25 313q-6 63 -6 94z" />
<glyph unicode="#" d="M37 438v92h225l41 304h-213v92h225l62 438h92l-61 -438h274l61 438h93l-62 -438h213v-92h-225l-41 -304h213v-92h-225l-62 -438h-92l61 438h-274l-61 -438h-93l62 438h-213zM354 530h275l41 304h-275z" />
<glyph unicode="$" d="M55 1014q0 162 115 260t291 123v135h63v-127h47q193 0 312 -66q-33 -174 -33 -252h-47l-8 9q-4 70 -19 145q-47 33 -64.5 44t-70.5 28.5t-117 19.5v-542q78 -16 157 -41t143.5 -54.5t104.5 -93t40 -156.5q0 -201 -123 -318.5t-322 -143.5v-160h-63v151h-49 q-211 0 -320 80q16 51 33 267h41l8 -9l12 -129q4 -29 76 -80t199 -57v602q-59 16 -86 23.5t-79 27t-79 35t-63.5 44t-54 60t-31 77t-13.5 98.5zM221 1079q0 -115 62.5 -176t177.5 -94v524q-117 -10 -178.5 -81.5t-61.5 -172.5zM524 47q131 14 205 97t74 227q0 111 -72 166 t-207 94v-584z" />
<glyph unicode="%" horiz-adv-x="2048" d="M244 1052.5q0 147.5 90 242t235.5 94.5t235.5 -94.5t90 -242t-90 -241.5t-235.5 -94t-235.5 94t-90 241.5zM391 1052.5q0 -63.5 14.5 -122t56 -108.5t107.5 -50q70 0 113 50t54.5 107.5t11.5 123t-11.5 123t-54.5 107.5t-113 50q-66 0 -107.5 -50t-56 -108.5t-14.5 -122z M512 -78l924 1520h86l-924 -1520h-86zM1153 311.5q0 147.5 90 241.5t235.5 94t235.5 -94t90 -241.5t-90 -242t-235.5 -94.5t-235.5 94.5t-90 242zM1300 311.5q0 -63.5 14.5 -122t56.5 -108.5t108 -50q70 0 112.5 50t54 107.5t11.5 123t-11.5 123t-54.5 107.5t-112 50 q-66 0 -108 -50t-56.5 -108.5t-14.5 -122z" />
<glyph unicode="&#x26;" horiz-adv-x="1251" d="M125 223q0 162 219 309q-72 102 -72 205q0 78 51.5 136.5t135.5 58.5q80 0 124 -46t44 -122q0 -137 -176 -287q104 -135 278 -250q61 76 62 154q0 41 -14.5 65.5t-47.5 35t-59.5 11.5t-73.5 1l-4 10l55 76q96 -14 209 -15q55 0 153.5 7.5t106.5 7.5l10 -7l-20 -102 l-10 -8q-82 23 -242 26q35 -31 35 -83q0 -98 -105 -207q57 -37 135 -62.5t125 -25.5q35 0 68 24l10 -8l4 -31q-51 -39 -102 -96q-20 -8 -45 -8q-133 0 -266 123q-156 -139 -318 -140q-121 0 -195.5 69t-74.5 179zM279 201q0 -74 46 -118t119 -44q111 0 228 113 q-133 113 -260 286q-133 -120 -133 -237zM336 694q0 -59 47 -135q61 37 129 108.5t68 118.5q0 37 -25 59.5t-63 22.5q-59 0 -107.5 -55t-48.5 -119z" />
<glyph unicode="'" horiz-adv-x="569" d="M211 1325q0 27 18.5 53.5t55.5 26.5t55 -26.5t18 -53.5q0 -31 -6 -94l-24 -313q-4 -57 -43 -57t-43 57l-25 313q-6 63 -6 94z" />
<glyph unicode="(" horiz-adv-x="681" d="M168 457q0 176 17.5 311t60.5 264t128 222.5t210 146.5l32 -37v-12q-80 -35 -129 -79t-95 -138.5t-67.5 -261t-21.5 -416.5t21.5 -417t67.5 -261t95.5 -138t128.5 -79v-13l-32 -36q-125 53 -210 146t-128 222t-60.5 264.5t-17.5 311.5z" />
<glyph unicode=")" horiz-adv-x="681" d="M66 -438q80 35 129 79t95 138t67.5 261t21.5 417t-21.5 416.5t-67.5 261t-95.5 138.5t-128.5 79v12l32 37q125 -53 210 -146.5t128 -222.5t60.5 -264t17.5 -311t-17.5 -311.5t-60.5 -264.5t-128 -222t-210 -146l-32 36v13z" />
<glyph unicode="*" d="M180 965q0 47 92 77l174 56v22l-170 127q-45 35 -45 62q0 23 20.5 47t53.5 24t62 -47l116 -180h23l72 168q12 29 20 43t24.5 27.5t39.5 13.5q25 0 46 -18.5t21 -43.5q0 -31 -33 -63l-149 -147l10 -21q8 0 90 3t123 3q33 0 53.5 -16.5t20.5 -42.5q0 -33 -18.5 -51.5 t-41.5 -18.5q-18 0 -47 12l-186 68l-19 -18l76 -170q14 -31 15 -56q0 -61 -70 -61q-55 0 -61 84l-9 194l-24 15l-137 -119q-53 -43 -82 -43q-8 0 -20.5 4t-26 20.5t-13.5 45.5z" />
<glyph unicode="+" horiz-adv-x="1228" d="M96 469v98h469v469h99v-469h469v-98h-469v-469h-99v469h-469z" />
<glyph unicode="," horiz-adv-x="512" d="M23 -285l163 453q27 74 101 74q76 0 75 -47q0 -17 -45 -91l-249 -403l-7 -4l-34 10z" />
<glyph unicode="-" horiz-adv-x="796" d="M102 428q20 29 41 125q33 0 90.5 -2t104.5 -3t88 -1q43 0 129 3t129 3l10 -16q-16 -10 -29.5 -52.5t-13.5 -72.5q-252 6 -254 6q-41 0 -89 -1t-105.5 -3t-89.5 -2z" />
<glyph unicode="." horiz-adv-x="512" d="M150 90q0 45 30.5 76t75.5 31t75.5 -31t30.5 -76t-30.5 -75.5t-75.5 -30.5t-75.5 30.5t-30.5 75.5z" />
<glyph unicode="/" horiz-adv-x="796" d="M68 -25l563 1598h98l-563 -1598h-98z" />
<glyph unicode="0" d="M70 428q0 213 130 349t335 136q188 0 303.5 -120.5t115.5 -333.5q0 -217 -121.5 -350.5t-326.5 -133.5q-193 0 -314.5 124t-121.5 329zM205 424q0 -180 90 -282.5t217 -102.5q141 0 224 118.5t83 299.5q0 182 -80 287.5t-217 105.5q-152 0 -234.5 -115.5t-82.5 -310.5z " />
<glyph unicode="1" d="M94 707v47l8 10q262 27 637 168l13 -8v-52l-9 -10l-96 -26q-53 -31 -53 -365t14 -373q20 -25 66.5 -36t189.5 -15l8 -8v-39l-8 -8q-209 8 -327 8q-96 0 -367 -8l-8 8v39l8 8q221 2 250 51q27 41 26 359q0 152 -6 311q-33 -12 -217 -70q-76 -23 -104 -22q-25 0 -25 31z " />
<glyph unicode="2" d="M94 -12l49 96q297 209 390.5 317.5t93.5 208.5q0 84 -58.5 133.5t-152.5 49.5q-117 0 -219 -80l-29 22l96 131q133 47 244 47q59 0 117.5 -18t109.5 -77.5t51 -149.5q0 -76 -34.5 -141.5t-92 -117t-117 -93.5t-122 -92t-94.5 -93q20 -10 174 -10q227 0 391 29l12 -13 q-20 -53 -20 -98q0 -18 4 -55l-10 -9q-109 12 -203 19q-98 6 -209 6q-272 0 -371 -12z" />
<glyph unicode="3" d="M12 -377l11 21q104 -41 194 -41q100 0 207.5 51t185.5 150.5t78 218.5q0 137 -58.5 207.5t-152.5 70.5q-69 0 -147 -37l-6 43q264 123 264 291q0 84 -61.5 139.5t-153.5 55.5q-104 0 -193 -76l-22 28l112 136q92 33 189 32q123 0 196.5 -67.5t73.5 -161.5 q0 -131 -172 -266v-6q113 0 192.5 -66.5t79.5 -206.5q0 -158 -109.5 -308t-262 -238.5t-287.5 -88.5q-31 0 -45 2z" />
<glyph unicode="4" d="M12 12l623 877l86 43l18 -19q-18 -129 -18 -587v-222q111 0 231 15l9 -10q-10 -51 -11 -68q0 -8 4 -53q-73 12 -233 12v-193q0 -119 6 -239q-84 -20 -152 -64l-14 7q18 225 19 489h-306q-129 0 -254 -14zM166 104h414v603h-5z" />
<glyph unicode="5" d="M12 -385l8 18q92 -31 162 -30q166 0 318.5 127t152.5 297q0 162 -80.5 216t-277.5 54q-16 0 -37 20l-14 15l-21 557l13 12q80 -12 196 -12q156 0 288 6t138 6l12 -12q-27 -59 -26 -133l-13 -13q-135 16 -305 17q-78 0 -207 -6q-25 -115 -24 -205q0 -72 21.5 -97.5 t93.5 -25.5q379 0 378 -283q0 -238 -208.5 -432t-456.5 -207q-55 66 -111 111z" />
<glyph unicode="6" d="M78 436q0 168 54 315.5t138 250t194.5 183.5t217 127t211.5 68l53 -24v-15q-285 -76 -463 -275.5t-229 -436.5l8 -8q139 150 303 149q150 0 251.5 -100.5t101.5 -276.5q0 -203 -136.5 -310.5t-300.5 -107.5q-201 0 -302 127t-101 334zM225 395q0 -166 80 -261t199 -95 q113 0 189.5 78t76.5 233q0 168 -79 248t-191 80q-115 0 -195 -74t-80 -209z" />
<glyph unicode="7" d="M102 -475q485 750 678 1208l-12 15q-92 10 -209 10q-84 0 -444 -23l-13 13q12 37 12.5 67.5t-6 50t-6.5 21.5q0 14 15 14q236 -8 530 -8q244 0 307 8l7 -24q-78 -109 -365 -670t-340 -703h-154v21z" />
<glyph unicode="8" d="M106 307q0 131 70 209t207 137q8 4 8 10.5t-8 10.5q-119 55 -176 126.5t-57 182.5q0 158 113.5 253t293.5 95q147 0 225 -72.5t78 -187.5q0 -90 -63.5 -175t-184.5 -151q-8 -4 -8 -10q0 -8 8 -10q137 -33 221.5 -113t84.5 -209q0 -156 -125 -292t-344 -136 q-145 0 -244 93.5t-99 238.5zM223 334q0 -131 83 -213t216 -82q117 0 188.5 89t71.5 206q0 215 -329 303q-230 -96 -230 -303zM279 1044q0 -201 268 -290q109 68 156 133t47 145q0 113 -63.5 178.5t-168.5 65.5q-115 0 -177 -71t-62 -161z" />
<glyph unicode="9" d="M78 -457q285 76 463 276.5t229 440.5l-8 8q-139 -150 -295 -149q-154 0 -257.5 100.5t-103.5 276.5q0 137 71 236t163 140t186 41q211 0 315.5 -127t104.5 -337q0 -168 -54 -315.5t-138 -250t-194.5 -183.5t-217 -127t-211.5 -69l-53 25v14zM254 539q0 -168 79 -248 t191 -80q109 0 192 75.5t83 217.5q0 158 -81 252t-202 94q-109 0 -185.5 -77.5t-76.5 -233.5z" />
<glyph unicode=":" horiz-adv-x="512" d="M150 90q0 45 30.5 76t75.5 31t75.5 -31t30.5 -76t-30.5 -75.5t-75.5 -30.5t-75.5 30.5t-30.5 75.5zM150 772q0 45 30.5 76t75.5 31t75.5 -31t30.5 -76t-30.5 -75.5t-75.5 -30.5t-75.5 30.5t-30.5 75.5z" />
<glyph unicode=";" horiz-adv-x="512" d="M23 -285l163 453q27 74 101 74q76 0 75 -47q0 -17 -45 -91l-249 -403l-7 -4l-34 10zM150 772q0 45 30.5 76t75.5 31t75.5 -31t30.5 -76t-30.5 -75.5t-75.5 -30.5t-75.5 30.5t-30.5 75.5z" />
<glyph unicode="&#x3c;" horiz-adv-x="1228" d="M96 463v110l1037 480v-111l-918 -424l918 -424v-110z" />
<glyph unicode="=" horiz-adv-x="1228" d="M96 268v99h1037v-99h-1037zM96 670v98h1037v-98h-1037z" />
<glyph unicode="&#x3e;" horiz-adv-x="1228" d="M96 -16v110l918 424l-918 424v111l1037 -480v-110z" />
<glyph unicode="?" horiz-adv-x="909" d="M266 1315q0 14 11.5 30.5t54.5 34t110 17.5q16 0 41 -2t86.5 -15.5t108.5 -39t85 -80t38 -127.5q0 -82 -39 -169t-92.5 -154t-106.5 -142q-104 -141 -104 -228q0 -70 55 -118l-6 -11l-31 -12q-33 23 -52 40t-42 63.5t-23 105.5q0 127 179 395q108 164 108 275 q0 70 -40 112.5t-99 42.5q-57 0 -94 -59q-20 -31 -39 -31t-64 22.5t-45 49.5zM362 90q0 45 31 76t76 31t75.5 -31t30.5 -76t-30.5 -75.5t-75.5 -30.5t-76 30.5t-31 75.5z" />
<glyph unicode="@" horiz-adv-x="1638" d="M104 659q0 332 219.5 539t553.5 207q293 0 475 -177t182 -433q0 -207 -107.5 -349.5t-275.5 -142.5q-84 0 -127 47t-43 96h-4q-37 -66 -102.5 -104.5t-135.5 -38.5q-92 0 -150.5 67.5t-58.5 188.5q0 190 124 342t280 152q57 0 99 -30t57 -77h4l18 82h129l-135 -541 q-6 -25 -6 -51q0 -35 24.5 -56.5t59.5 -21.5q129 0 212 124t83 311q0 227 -169 392t-417 165q-307 0 -477 -185.5t-170 -527.5q0 -240 174 -423t461 -183q121 0 206.5 25.5t194.5 76.5l27 -41q-250 -117 -428 -117q-193 0 -348.5 67t-244.5 171t-136.5 220t-47.5 226z M659 549q0 -174 134 -174q96 0 181 146.5t85 314.5q0 137 -119 137q-98 0 -189.5 -124t-91.5 -300z" />
<glyph unicode="A" horiz-adv-x="1478" d="M14 0v39l9 8q74 6 97 18.5t40 40.5q82 135 129 246l370 867q23 53 39.5 98t28.5 76h72q14 -52 37 -107l448 -1093q39 -98 64.5 -119t107.5 -27l8 -8v-39l-8 -8q-213 8 -237 8q-86 0 -246 -8l-8 8v39l8 8q23 2 43 3t38.5 5t32 9.5t21.5 14.5t8 21q0 14 -22 70l-133 350 q-129 6 -256 6q-129 0 -259 -6l-49 -119q-98 -231 -108 -303q14 -29 39.5 -37t109.5 -14l8 -8v-39l-8 -8q-145 8 -196 8q-43 0 -120 -4t-99 -4zM479 604q27 0 74 -2t85 -3t73 -1q2 0 223 6l-221 537z" />
<glyph unicode="B" horiz-adv-x="1251" d="M66 1341v39l8 9q29 0 120 -4.5t140 -4.5q55 0 174 4.5t170 4.5q29 0 52.5 -2.5t75.5 -8.5t92 -24.5t82 -47t65.5 -79.5t23.5 -117q0 -135 -86 -225t-227 -129v-4q156 0 263 -89.5t107 -238.5q0 -213 -157.5 -322.5t-374.5 -109.5q-29 0 -111 4t-149 4q-96 0 -191 -8l-8 8 v39l8 8q72 10 85.5 39t13.5 172v864q0 117 -6 154q-2 14 -17.5 28.5t-23.5 16.5q-10 4 -121 12zM408 694q0 -516 14 -598q61 -33 137 -33q106 0 182 30t112 67t56.5 94t22.5 87t2 73q0 84 -28.5 142t-64.5 86t-102.5 43t-106.5 17.5t-114 2.5q-72 0 -110 -11zM408 772 q53 -4 98 -4q385 0 385 299q0 72 -27.5 122t-62.5 74.5t-91.5 37t-86 14.5t-74.5 2q-59 0 -131 -14q-10 -61 -10 -531z" />
<glyph unicode="C" horiz-adv-x="1366" d="M123 684q0 346 190.5 533.5t540.5 187.5q256 0 438 -76q-20 -100 -32 -254h-56q-6 96 -15 121t-56 55q-119 82 -304 82q-143 0 -248.5 -53t-160.5 -143t-80 -188.5t-25 -207.5q0 -96 19.5 -191t63.5 -186.5t108.5 -161t162 -112.5t216.5 -43q80 0 202.5 40t167.5 93 l25 -22l-47 -105q-174 -78 -385 -78q-182 0 -320.5 58.5t-212 139.5t-121 186.5t-59.5 181t-12 143.5z" />
<glyph unicode="D" horiz-adv-x="1478" d="M59 1341v39l9 9q25 0 82 -3.5t113 -4.5t108 -1q86 0 221 4.5t180 4.5q303 0 467 -164t164 -465q0 -322 -208 -545t-527 -223q-61 0 -151.5 4t-145.5 4q-135 0 -230 -8l-8 8v39l8 8q63 10 74.5 39t11.5 172v864q0 117 -6 154q-2 14 -17.5 28.5t-23.5 16.5q-16 6 -112 12z M393 897q0 -2 13 -795q155 -39 245 -39q268 0 418 169t150 468q0 295 -139.5 452t-424.5 157q-121 0 -249 -19q0 -68 -6.5 -197.5t-6.5 -195.5z" />
<glyph unicode="E" horiz-adv-x="1138" d="M82 1341v39l8 9q37 0 177.5 -4.5t217.5 -4.5q92 0 259 4.5t221 4.5l34 -25l-16 -236h-33l-8 9q0 25 -15.5 71.5t-31.5 67.5q-92 27 -262 27q-145 0 -205 -13q-12 -119 -12 -272q0 -2 6 -242q41 -8 188 -8q217 0 314 29l8 -9v-110l-8 -8q-39 18 -269 18q-150 0 -211 -8 l-22 -23q-6 -147 -6 -149q0 -201 12 -418q94 -12 250 -12q182 0 270 31q37 76 60 155h49q-16 -197 -17 -248l-24 -24q-211 8 -475 8q-248 0 -377 -8l-8 8v39l8 8q63 10 74.5 39t11.5 172v864q0 117 -6 154q-2 14 -17.5 28.5t-23.5 16.5q-16 6 -113 12z" />
<glyph unicode="F" d="M94 0v39l8 8q94 8 109 12q8 2 23.5 16.5t17.5 28.5q6 37 6 154v864q0 117 -6 154q-2 14 -17.5 28.5t-23.5 16.5q-14 4 -109 12l-8 8v39l8 9q205 -8 402 -9q72 0 150.5 1t161.5 4.5t118 3.5l35 -25l-17 -256h-32l-9 8q0 33 -14 86t-33 74q-80 27 -231 27q-133 0 -197 -19 q-12 -160 -12 -342q0 -205 6 -258q47 -18 180 -18q195 0 291 28l8 -8v-111l-8 -8q-41 18 -246 19q-164 0 -225 -6q-6 -164 -6 -322q0 -117 6 -154q2 -14 17.5 -28.5t23.5 -16.5q12 -4 44 -7t70 -4t44 -1l8 -8v-39l-8 -8q-2 0 -107.5 4t-179.5 4q-76 0 -158 -4l-82 -4z" />
<glyph unicode="G" horiz-adv-x="1478" d="M82 700q0 354 214 529.5t576 175.5q137 0 408 -57l23 -23q-16 -125 -17 -180v-64l-8 -8h-47l-8 10q0 92 -21 123q-37 53 -148.5 90t-211.5 37q-158 0 -273.5 -52t-177 -143t-89.5 -192.5t-28 -220.5q0 -113 30 -222.5t93.5 -216t185.5 -173t287 -66.5q68 0 148 17.5 t115 44.5q12 197 12 198q0 96 -19 164q-68 14 -192 25l-8 8v39l8 8q31 0 109.5 -5t121.5 -5q123 0 203 10l8 -8v-47q-57 -14 -67.5 -44t-10.5 -161q0 -63 2.5 -110.5t6.5 -69.5l2 -21l-13 -33q-80 -8 -224 -45t-261 -37q-150 0 -279 43t-231 129t-160.5 227.5t-58.5 325.5z " />
<glyph unicode="H" horiz-adv-x="1593" d="M74 0v39l8 8q111 8 121 12q8 2 23.5 16.5t17.5 28.5q6 37 6 154v864q0 117 -6 154q-2 14 -17.5 28.5t-23.5 16.5q-10 4 -121 12l-8 8v39l8 9q29 0 117 -4.5t135 -4.5t134 4.5t116 4.5l8 -9v-39l-8 -8q-111 -8 -121 -12q-8 -2 -23.5 -16.5t-17.5 -28.5q-6 -37 -6 -154 v-325q221 -8 334 -9q150 0 428 9v325q0 117 -7 154q-2 14 -17 28.5t-24 16.5q-10 4 -120 12l-9 8v39l9 9q29 0 115.5 -4.5t134 -4.5t135.5 4.5t116 4.5l9 -9v-39l-9 -8q-111 -8 -120 -12q-8 -2 -23.5 -16.5t-17.5 -28.5q-6 -37 -7 -154v-864q0 -117 7 -154q2 -14 17 -28.5 t24 -16.5q10 -4 120 -12l9 -8v-39l-9 -8q-29 0 -116.5 4t-135 4t-134.5 -4t-115 -4l-9 8v39l9 8q111 8 120 12q8 2 23.5 16.5t17.5 28.5q6 37 7 154v453q-178 6 -357 6q-203 0 -405 -6v-453q0 -117 6 -154q2 -14 17.5 -28.5t23.5 -16.5q10 -4 121 -12l8 -8v-39l-8 -8 q-29 0 -116 4t-134 4t-135 -4t-117 -4z" />
<glyph unicode="I" horiz-adv-x="681" d="M82 0v39l8 8q111 8 121 12q8 2 23.5 16.5t17.5 28.5q6 37 6 154v864q0 117 -6 154q-2 14 -17.5 28.5t-23.5 16.5q-10 4 -121 12l-8 8v39l8 9q29 0 117 -4.5t135 -4.5t134 4.5t116 4.5l8 -9v-39l-8 -8q-111 -8 -121 -12q-8 -2 -23.5 -16.5t-17.5 -28.5q-6 -37 -6 -154 v-864q0 -117 6 -154q2 -14 17.5 -28.5t23.5 -16.5q10 -4 121 -12l8 -8v-39l-8 -8q-29 0 -116 4t-134 4t-135 -4t-117 -4z" />
<glyph unicode="J" horiz-adv-x="681" d="M39 -188l12 6q43 -31 105 -31q37 0 58.5 12.5t30.5 50t11 72.5t2 117v1083q0 117 -6 154q-2 14 -17.5 28.5t-23.5 16.5q-10 4 -121 12l-8 8v39l8 9q29 0 117 -4.5t135 -4.5t134 4.5t116 4.5l8 -9v-39l-8 -8q-109 -10 -137 -16q-31 -6 -31 -195q0 -158 6 -471t6 -469 q0 -106 -29.5 -195t-72.5 -144.5t-94.5 -94.5t-91 -55.5t-66.5 -16.5q-25 1 -43 7v129z" />
<glyph unicode="K" horiz-adv-x="1366" d="M74 0v39l8 8q111 8 121 12q8 2 23.5 16.5t17.5 28.5q6 37 6 154v864q0 117 -6 154q-2 14 -17.5 28.5t-23.5 16.5q-10 4 -121 12l-8 8v39l8 9q29 0 117 -4.5t135 -4.5t134 4.5t116 4.5l8 -9v-39l-8 -8q-111 -8 -121 -12q-8 -2 -23.5 -16.5t-17.5 -28.5q-6 -37 -6 -154 v-403q104 39 328.5 273.5t224.5 289.5q0 51 -103 51l-8 8v39l8 9q139 -8 211 -9q76 0 223 9l9 -9v-39l-9 -8q-51 0 -93 -17.5t-56 -28.5t-57 -52l-478 -471l451 -500q115 -131 169 -174t110 -43l8 -8v-39l-8 -8q-18 0 -69.5 4t-80.5 4q-31 0 -88 -4t-76 -4q0 37 -59 112 q-86 111 -288 339.5t-236 228.5h-33v-414q0 -117 6 -154q2 -14 17.5 -28.5t23.5 -16.5q10 -4 121 -12l8 -8v-39l-8 -8q-29 0 -116 4t-134 4t-135 -4t-117 -4z" />
<glyph unicode="L" horiz-adv-x="1138" d="M82 1341v39l8 9q29 0 117 -4.5t135 -4.5t135 4.5t127 4.5l8 -9v-39l-8 -8q-117 -6 -133 -12q-8 -2 -23.5 -16.5t-17.5 -28.5q-6 -37 -6 -154v-614q0 -207 12 -412q94 -12 250 -12q182 0 270 31q37 66 68 178h41l8 -8q-24 -134 -24 -259v-10l-25 -24q-211 8 -475 8 q-248 0 -377 -8l-8 8v39l8 8q63 10 74.5 39t11.5 172v864q0 117 -6 154q-2 14 -17.5 28.5t-23.5 16.5q-10 4 -121 12z" />
<glyph unicode="M" horiz-adv-x="1933" d="M80 0v39l8 8q37 0 59.5 1t44 14.5t31.5 20.5t20.5 44t13.5 60.5t6 93t3 116.5v158v635q0 74 -23.5 108.5t-92.5 34.5h-62l-8 8v39l8 9q139 -8 178 -9q59 0 183 9q20 -63 108 -245.5t224.5 -455t195.5 -393.5q41 86 172 336t226 447.5t130 310.5q127 -8 191 -9q51 0 149 9 l8 -9v-39l-8 -8h-58.5t-44 -9t-32.5 -14t-20.5 -31t-13.5 -42t-6 -67.5t-3 -85v-115.5v-721q0 -133 24.5 -163t153.5 -38l8 -8v-39l-8 -8q-25 0 -110.5 4t-132.5 4q-49 0 -139.5 -4t-112.5 -4l-9 8v39l9 8q33 4 52 7t38.5 15.5t29 18.5t18.5 37t11 49.5t5 73.5t3 92v125v692 h-4l-454 -921q-80 -166 -105 -248h-31q-55 152 -102 248l-455 921h-4v-196v-642q0 -127 18.5 -186t49.5 -72.5t98 -13.5l8 -8v-39l-8 -8q-23 0 -97.5 4t-113.5 4q-43 0 -118.5 -4t-100.5 -4z" />
<glyph unicode="N" horiz-adv-x="1593" d="M80 0v39l8 8q35 0 56.5 1t41 14.5t29.5 20.5t19.5 44t12.5 60.5t6 93t3 116.5v158v590q0 90 -53 139t-115 49l-8 8v39l8 9q90 -8 164 -9q43 0 133 9q100 -170 360.5 -492t505.5 -604v749q0 188 -30.5 239.5t-139.5 51.5l-8 8v39l8 9q139 -8 209 -9q68 0 215 9l8 -9v-39 l-8 -8q-74 0 -102.5 -12t-47 -75.5t-18.5 -207.5v-848q0 -92 13 -198h-86q-43 68 -361.5 456t-560.5 672v-801q0 -127 18.5 -186t49 -72.5t98.5 -13.5l8 -8v-39l-8 -8q-23 0 -97.5 4t-113.5 4q-43 0 -119 -4t-90 -4z" />
<glyph unicode="O" horiz-adv-x="1593" d="M82 713q0 135 46 257t135 220t234.5 156.5t327.5 58.5q41 0 85 -4t115 -19.5t133.5 -42t129 -78t114.5 -120t78.5 -175t30.5 -235.5q0 -104 -23.5 -206.5t-78.5 -203t-137 -176t-210 -123t-286 -47.5q-336 0 -515 198t-179 540zM274 752q0 -162 34 -288t88.5 -203 t127 -127t143 -68.5t144.5 -18.5q104 0 188 32t137.5 86t91.5 117.5t56.5 139.5t26.5 138.5t8 123.5q0 133 -26.5 244.5t-85 205t-165 146.5t-249.5 53q-238 0 -378.5 -152.5t-140.5 -428.5z" />
<glyph unicode="P" horiz-adv-x="1138" d="M82 0v39l8 8q111 8 121 12q8 2 23.5 16.5t17.5 28.5q6 37 6 154v864q0 117 -6 154q-2 14 -17.5 28.5t-23.5 16.5q-10 4 -121 12l-8 8v39l8 9q29 0 117 -4.5t135 -4.5q63 0 180 4.5t189 4.5q53 0 90 -3.5t97 -20.5t98 -50t68 -99.5t30 -160.5q0 -164 -118 -289t-337 -125 q-90 0 -129 27l-14 47l14 8q37 -18 111 -18q123 0 205.5 80.5t82.5 238.5q0 150 -78.5 217.5t-244.5 67.5q-76 0 -150 -6q-12 -92 -12 -279v-766q0 -117 6 -154q2 -14 17.5 -28.5t23.5 -16.5q20 -8 145 -12l9 -8v-39l-9 -8q-23 0 -124 4t-150 4q-47 0 -135 -4t-117 -4z" />
<glyph unicode="Q" horiz-adv-x="1593" d="M82 713q0 135 46 257t135 220t234.5 156.5t327.5 58.5q41 0 85 -4t115 -19.5t133.5 -42t129 -78t114.5 -120t78.5 -175t30.5 -235.5q0 -102 -22.5 -202.5t-76.5 -199t-133 -174t-202 -124.5t-274 -54q-16 -12 -17 -18q0 -23 39 -29q399 -94 594 -94q37 0 121 62h6v-64 l-141 -117q-20 -16 -109 -16q-125 0 -397 88q-283 86 -401 86q-143 0 -181 -80l-43 12q39 125 189 142q115 12 151 12l7 27q-262 45 -400.5 235.5t-138.5 489.5zM274 752q0 -162 34 -288t88.5 -203t127 -127t143 -68.5t144.5 -18.5q104 0 188 32t137.5 86t91.5 117.5 t56.5 139.5t26.5 138.5t8 123.5q0 133 -26.5 244.5t-85 205t-165 146.5t-249.5 53q-238 0 -378.5 -152.5t-140.5 -428.5z" />
<glyph unicode="R" horiz-adv-x="1366" d="M104 0v39l9 8q111 8 120 12q8 2 23.5 16.5t17.5 28.5q7 37 7 154v864q0 117 -7 154q-2 14 -17 28.5t-24 16.5q-10 4 -120 12l-9 8v39l9 9q6 0 48 -2.5t117.5 -4.5t167.5 -2q57 0 170 4.5t150 4.5q145 0 244.5 -80t99.5 -226q0 -86 -30.5 -153.5t-80 -105.5t-84 -55 t-65.5 -28l-100 -30l-9 -13q53 -78 251 -333.5t239 -301.5l80 -16l8 -8v-39l-8 -8q-4 0 -51.5 4t-81.5 4q-92 0 -150 -8q-70 131 -245 374.5t-275 344.5l14 32q86 0 152.5 12.5t128 42t95.5 91t34 151.5q0 276 -301 277q-119 0 -170 -21q-14 -100 -15 -192v-846 q0 -117 7 -154q2 -14 17 -28.5t24 -16.5q10 -4 120 -12l9 -8v-39l-9 -8q-2 0 -89 4t-160.5 4t-163.5 -4l-88 -4z" />
<glyph unicode="S" horiz-adv-x="1138" d="M113 1014q0 188 151.5 289.5t364.5 101.5q193 0 311 -66q-33 -174 -33 -252h-47l-8 9q-4 70 -18 145q-43 31 -69 46.5t-83 30.5t-127 15q-135 0 -205.5 -71.5t-70.5 -182.5q0 -88 40.5 -148.5t107.5 -90t145.5 -50t158.5 -41t146.5 -52t107.5 -94t41 -157.5 q0 -231 -158.5 -351t-398.5 -120q-211 0 -319 80q16 52 32 267h41l8 -9l13 -129q4 -29 81.5 -83t213.5 -54q147 0 234 85t87 239q0 80 -41 133t-107.5 81.5t-146.5 49t-158.5 45.5t-145 60.5t-107.5 105t-41 168.5z" />
<glyph unicode="T" horiz-adv-x="1251" d="M49 1120q12 76 12 152q0 10 -12 108l25 25q100 -25 553 -25q451 0 551 25l24 -25q-12 -98 -12 -108q0 -76 12 -152h-61l-8 8q-12 121 -41 152q-106 20 -236 20q-55 0 -135 -6q-12 -82 -12 -172v-864q0 -117 6 -154q2 -14 17.5 -28.5t23.5 -16.5q10 -4 121 -12l8 -8v-39 l-8 -8q-29 0 -116 4t-134 4t-135.5 -4t-116.5 -4l-8 8v39l8 8q111 8 121 12q8 2 23.5 16.5t17.5 28.5q6 37 6 154v864q0 90 -13 172q-80 6 -135 6q-129 0 -235 -20q-29 -31 -41 -152l-8 -8h-62z" />
<glyph unicode="U" horiz-adv-x="1478" d="M43 1341v39l8 9q29 0 117 -4.5t135 -4.5t134 4.5t114 4.5l8 -9v-39l-8 -8q-51 0 -75.5 -4t-47 -17.5t-30 -49t-11.5 -85t-4 -139.5v-454q0 -59 1 -93t8 -94.5t21.5 -96.5t44 -82t71.5 -70.5t106.5 -43t148.5 -18.5q72 0 131.5 12.5t99.5 38t69.5 52t47 70.5t28.5 77 t15.5 86t5.5 81.5t1 82.5v407q0 86 -1 137.5t-10.5 92.5t-17.5 58t-33.5 30.5t-46 15.5t-69.5 6l-9 8v39l9 9q25 0 104.5 -4.5t122.5 -4.5q37 0 105.5 4.5t90.5 4.5l9 -9v-39l-9 -8q-8 -2 -54 -5t-54 -3q-51 -6 -51 -262v-598q0 -260 -144.5 -375t-375.5 -115 q-111 0 -198 20.5t-143.5 49.5t-95.5 82t-58.5 94t-29.5 110.5t-11 108.5t-1 111v653q0 88 -32 108.5t-128 20.5z" />
<glyph unicode="V" horiz-adv-x="1478" d="M53 1341v39l8 9q180 -8 275 -9q86 0 242 9l8 -9v-41l-8 -6q-98 -2 -123 -13t-25 -48q0 -31 78 -242t182.5 -478t116.5 -300h4q109 260 240 605t131 417q0 35 -33 46t-113 13l-8 6v41l8 9q139 -8 207 -9q63 0 174 9l8 -9v-41l-8 -6q-51 -4 -74.5 -30.5t-82.5 -163.5 q-72 -164 -148 -353.5t-172 -438.5t-137 -355h-86q-166 489 -449 1159q-53 125 -82.5 152.5t-124.5 29.5z" />
<glyph unicode="W" horiz-adv-x="2048" d="M37 1341v39l8 9q152 -8 256 -9q139 0 234 9l8 -9v-39l-8 -8q-41 0 -62.5 -1t-44 -7t-32 -18.5t-9.5 -34.5q0 -49 99.5 -496.5t109.5 -503.5h4q55 145 210.5 521t229.5 587h76q154 -434 428 -1101q61 184 147.5 523t86.5 447q0 51 -26 64.5t-126 19.5l-8 8v39l8 9 q137 -8 197 -9q39 0 180 9l8 -9v-39l-8 -8q-49 0 -69.5 -22.5t-39.5 -91.5q-47 -170 -129 -460t-129 -465t-77 -302h-93q-115 338 -440 1108l-438 -1108h-99l-239 1036q-18 84 -29.5 128t-27 84t-24.5 54.5t-30.5 25.5t-39 12t-54.5 1z" />
<glyph unicode="X" horiz-adv-x="1366" d="M23 0v39l8 8q72 4 89 10t42 33q113 125 229.5 287t216.5 311q-299 477 -385 584q-29 37 -52.5 46t-100.5 15l-9 8v39l9 9q29 0 120 -4.5t140 -4.5q45 0 129 4.5t114 4.5l9 -9v-39l-9 -8q-76 0 -101.5 -8t-25.5 -35q0 -37 279 -454q92 135 153.5 224t92 142t30.5 78 t-20 37t-41.5 14t-65.5 2l-8 8v39l8 9q35 0 118 -4.5t128 -4.5q35 0 96.5 4.5t77.5 4.5l9 -9v-39l-9 -8q-47 0 -70.5 -4t-30.5 -10t-26 -27q-84 -92 -399 -536l375 -572q63 -94 91 -115.5t101 -21.5l8 -8v-39l-8 -8q-143 8 -227 8q-96 0 -272 -8l-9 8v39l9 8q135 0 135 41 t-318 524q-121 -162 -221 -321.5t-100 -184.5q0 -18 10 -29t27.5 -16.5t41 -8.5t52.5 -5l8 -8v-39l-8 -8q-117 8 -217 8q-41 0 -116 -4t-99 -4z" />
<glyph unicode="Y" horiz-adv-x="1366" d="M53 1333q115 25 226 72q88 -31 162.5 -120t117.5 -175l217 -418l330 557q12 23 27.5 46.5t29 42t29.5 30.5t33 12h112v-39q-55 -8 -98 -61t-178 -266q-242 -379 -242 -439v-317q0 -117 6 -154q2 -14 17.5 -28.5t23.5 -16.5q10 -4 121 -12l8 -8v-39l-8 -8q-2 0 -88 4 q-90 4 -162 4q-76 0 -162 -4l-90 -4l-8 8v39l8 8q111 8 121 12q8 2 23.5 16.5t17.5 28.5q6 37 6 154v317q0 39 -104.5 219.5t-161.5 262.5q-53 78 -96 126t-78 69.5t-57.5 27.5t-53.5 6h-39z" />
<glyph unicode="Z" horiz-adv-x="1251" d="M16 -8v41l920 1257q-289 6 -389 6q-221 0 -277.5 -10t-68.5 -59l-29 -123h-49q12 203 12 260l25 25q221 -8 465 -9q283 0 561 9v-50l-901 -1241q188 -8 333 -8q367 0 451 21q61 96 61 184l17 12h47q-16 -137 -16 -211v-80l-25 -24q-61 0 -266 4t-318 4q-104 0 -297.5 -4 t-255.5 -4z" />
<glyph unicode="[" horiz-adv-x="681" d="M209 -451q0 12 9 86t16.5 157.5t7.5 146.5v1036q0 63 -7.5 146t-16.5 157t-9 86l20 25q111 -8 179 -9q74 0 196 9l12 -9v-47l-12 -8h-65q-10 0 -166 -8q0 -25 -6.5 -133.5t-6.5 -208.5v-1036q0 -100 6.5 -209t6.5 -133q156 -8 166 -9h65l12 -8v-47l-12 -8q-123 8 -196 8 q-68 0 -179 -8z" />
<glyph unicode="\" horiz-adv-x="796" d="M68 1573h98l563 -1598h-98z" />
<glyph unicode="]" horiz-adv-x="681" d="M66 -420l12 8h65q10 0 166 9q0 25 6.5 133t6.5 209v1036q0 100 -6.5 208.5t-6.5 133.5q-156 8 -166 8h-65l-12 8v47l12 9q123 -8 196 -9q68 0 179 9l20 -25q0 -12 -9 -86t-16.5 -157t-7.5 -146v-1036q0 -63 7.5 -146.5t16.5 -157t9 -86.5l-20 -24q-111 8 -179 8 q-74 0 -196 -8l-12 8v47z" />
<glyph unicode="^" horiz-adv-x="1228" d="M190 616l379 748h93l376 -748h-110l-314 613l-313 -613h-111z" />
<glyph unicode="_" d="M0 -154h1024v-102h-1024v102z" />
<glyph unicode="`" horiz-adv-x="569" d="M-16 1356q0 31 21.5 50t45.5 19q18 0 34.5 -8t28 -20.5t25.5 -26.5l295 -289h-72l-344 211q-35 20 -34 64z" />
<glyph unicode="a" d="M12 0v31l8 8q53 0 79 30.5t79 161.5l291 711l8 6h49l9 -6l311 -747q43 -102 66.5 -128t91.5 -28l8 -8v-31l-8 -8q-12 0 -83 4t-110 4q-43 0 -120 -4t-95 -4l-8 8v31l8 8q119 0 119 45q0 31 -84 227q-16 0 -98 4t-94.5 4t-81 -4t-78.5 -4q-63 -168 -64 -213q0 -59 121 -59 l8 -8v-31l-8 -8q-10 0 -70.5 4t-95.5 4q-31 0 -85 -4t-65 -4zM301 373q12 0 59.5 -3t73.5 -3q2 0 174 6l-155 372z" />
<glyph unicode="b" d="M61 901v31l9 8q31 0 124 -4t144 -4q35 0 110.5 4t114.5 4q78 0 140.5 -15.5t111.5 -63.5t49 -124q0 -98 -59.5 -154.5t-186.5 -80.5v-4q135 0 217.5 -60.5t82.5 -177.5q0 -111 -101.5 -189.5t-259.5 -78.5q-47 0 -125 4t-108 4q-84 0 -199 -8l-8 8v31l8 8q59 10 78 31 q16 20 16 327v262q0 164 -6 179q-14 29 -31 36q-31 18 -112 19zM367 467q0 -340 6 -397q57 -23 145 -23q115 0 171 59.5t56 161.5q0 119 -68.5 159t-217.5 40h-92zM367 522h84q260 0 260 193q0 162 -226 162q-76 0 -116 -9q-2 -115 -2 -346z" />
<glyph unicode="c" d="M94 453q0 213 139.5 358t389.5 145q170 0 327 -67l6 -12q-16 -47 -30 -175l-11 -8h-30l-8 8q0 63 -13 109q-100 82 -241 82q-176 0 -272.5 -125t-96.5 -303q0 -168 107.5 -297t289.5 -129q74 0 129.5 24.5t122.5 81.5l12 2l17 -8l4 -10l-35 -98q-119 -55 -287 -56 q-260 0 -390 138.5t-130 339.5z" />
<glyph unicode="d" horiz-adv-x="1251" d="M72 901v31l8 8q8 0 92 -4t131 -4q72 0 201 4t176 4q211 0 338 -107.5t127 -314.5q0 -100 -33 -191t-98.5 -168t-180 -122t-262.5 -45q-35 0 -122 4t-132 4q-76 0 -182 -8l-8 8v31l8 8q59 10 78 31q16 20 16 327v262q0 164 -6 179q-14 29 -30 36q-31 18 -113 19zM377 276 q0 -150 10 -184q94 -37 191 -37q401 0 401 443q0 387 -389 387q-88 0 -203 -19q-10 -81 -10 -192v-398z" />
<glyph unicode="e" horiz-adv-x="909" d="M53 901v31l8 8q33 -2 125 -6q59 -2 207 -2q33 0 169 4t204 4l20 -8q-23 -127 -22 -184l-8 -13h-29l-10 6q-4 59 -27 97q-99 30 -210 30h-7q-59 0 -104 -6q-10 -96 -11 -211v-112q47 -10 162 -11q111 0 189 23l12 -14v-72l-12 -12q-80 12 -258 12q-61 0 -77 -3t-16 -18 v-133q0 -145 17 -233q90 -14 160 -15q102 0 182 23l51 123l12 8h33l6 -8q-16 -51 -22 -203l-13 -14q-162 8 -374 8q-180 0 -293 -8l-8 8v31l8 8q59 10 78 31q16 20 16 327v262q0 164 -6 179q-14 29 -31 36q-31 18 -113 19z" />
<glyph unicode="f" horiz-adv-x="796" d="M53 0v39l8 8q117 0 133.5 24.5t16.5 307.5v225q0 211 -16 264q-2 8 -59.5 16.5t-74.5 8.5l-8 8v31l8 8q106 -8 306 -8q205 0 381 8l18 -27q-25 -102 -25 -172l-8 -8h-28l-11 8q-12 96 -14 101q-6 8 -61.5 21.5t-120.5 13.5q-49 0 -131 -15q-8 -127 -9 -385 q47 -10 142 -10q131 0 200 18l7 -6q-18 -41 -23 -78l-10 -8q-47 10 -215 10q-80 0 -101 -4v-65q0 -199 9 -236q2 -6 17 -18t28 -17q49 -16 127 -16l8 -8v-39l-8 -8q-88 8 -252 8q-117 0 -226 -8z" />
<glyph unicode="g" horiz-adv-x="1138" d="M90 465q0 223 155.5 357t395.5 134q145 0 344 -53l6 -10q-28 -83 -28 -195v-8l-9 -8h-28l-8 8q-4 68 -13 111q-41 41 -115.5 66.5t-154.5 25.5q-66 0 -129.5 -23.5t-120.5 -70.5t-93 -131t-36 -191q0 -180 102.5 -313t307.5 -133q70 0 159 28q6 129 6 140q0 4 -6 108 q-90 12 -137 12l-8 9v30l8 9q68 -8 193 -9q92 0 159 9l9 -9v-30l-9 -9q-45 -4 -61 -12q-12 -37 -12 -121q0 -125 18 -139l-6 -16q-221 -55 -363 -56q-236 0 -381 124t-145 366z" />
<glyph unicode="h" horiz-adv-x="1251" d="M59 0v31l9 8q90 0 112 16q16 10 29 25q16 21 16 211v393q0 162 -28 184q-8 6 -49.5 15.5t-79.5 9.5l-9 8v31l9 8q18 0 101 -4t130 -4t130 4t101 4l9 -8v-31l-9 -8q-94 0 -116 -19q-14 -10 -25 -22q-16 -14 -16 -141v-168q27 0 117 -4t137 -4t135 4t117 4v168 q0 127 -17 141q-10 12 -24 22q-23 18 -117 19l-8 8v31l8 8q18 0 101 -4t130 -4t130 4t102 4l8 -8v-31l-8 -8q-39 0 -80 -9.5t-49 -15.5q-29 -23 -29 -184v-393q0 -190 16 -211q12 -14 29 -25q23 -16 113 -16l8 -8v-31l-8 -8q-18 0 -101.5 4t-130.5 4t-130 -4t-101 -4l-8 8 v31l8 8q113 0 135.5 28.5t22.5 163.5v248q-168 8 -252 8q-86 0 -254 -8v-248q0 -135 22.5 -163.5t134.5 -28.5l9 -8v-31l-9 -8q-18 0 -101 4t-130 4t-130 -4t-101 -4z" />
<glyph unicode="i" horiz-adv-x="569" d="M45 0v31l8 8q90 0 113 16q16 10 29 25q16 21 16 211v393q0 162 -29 184q-8 6 -49 15.5t-80 9.5l-8 8v31l8 8q18 0 101.5 -4t130.5 -4t130 4t101 4l8 -8v-31l-8 -8q-39 0 -80 -9.5t-49 -15.5q-29 -23 -29 -184v-393q0 -190 17 -211q12 -14 28 -25q23 -16 113 -16l8 -8v-31 l-8 -8q-18 0 -101 4t-130 4t-130 -4t-102 -4z" />
<glyph unicode="j" horiz-adv-x="569" d="M27 -152l18 5q16 -35 78 -35q49 0 72 35q12 41 14 136t2 486v219q0 135 -35 172q-29 16 -123 27l-8 8v31l8 8q18 0 101.5 -4t130.5 -4t130 4t101 4l8 -8v-31l-8 -8q-88 0 -137 -27q-20 -25 -21 -170v-229q0 -92 1 -157.5t3.5 -97.5t2.5 -40q0 -154 -61.5 -259.5 t-139.5 -152.5q-30 -22 -106 -22h-7l-12 8q0 59 -12 102z" />
<glyph unicode="k" d="M45 0v31l8 8q90 0 113 16q16 10 29 25q16 21 16 211v393q0 162 -29 184q-8 6 -49 15.5t-80 9.5l-8 8v31l8 8q18 0 101.5 -4t130.5 -4q12 0 209 8l8 -8v-31l-8 -8q-76 0 -107 -25q-29 -23 -29 -184v-197q37 0 130.5 80t173.5 166q75 81 75 106q0 17 -14 31q-14 8 -72 23 l-8 8v31l8 8q90 -8 148 -8q78 0 200 8l9 -8v-31l-9 -8q-35 0 -77 -14l-371 -344l393 -478q37 -18 64 -18l8 -8v-31l-8 -8q-6 0 -51.5 4t-69.5 4q-23 0 -67 -4t-60 -4l-8 8q0 41 -28 83t-165 208q-139 168 -174 168q-14 0 -27 -4v-164q0 -190 17 -211q12 -14 28 -25 q23 -16 91 -16l8 -8v-31l-10 -8q-180 8 -207 8q-47 0 -130 -4t-102 -4z" />
<glyph unicode="l" horiz-adv-x="909" d="M84 901v31l8 8q8 0 92 -4t131 -4q45 0 129 4t115 4l8 -8v-31l-8 -8q-12 0 -59 -6t-58 -10q-31 -12 -39 -31q-14 -29 -14 -207v-360q0 -143 6 -203q82 -12 195 -13q70 0 137 13q41 66 68 151l8 6h33l6 -8q-23 -117 -27 -219l-14 -14q-139 8 -359 8q-182 0 -295 -8l-8 8v31 l8 8q59 10 78 31q17 20 17 327v262q0 164 -6 179q-14 29 -31 36q-31 18 -113 19z" />
<glyph unicode="m" horiz-adv-x="1478" d="M68 0v31l8 8q88 0 110 16q16 10 29 25q16 21 16 211v393q0 100 -4 135q0 8 -17 29.5t-28 28.5q-29 16 -106 16l-8 8v31l8 8q111 -8 164 -8q55 0 161 8q37 -102 353 -713q260 522 340 713q102 -8 157 -8q53 0 152 8l8 -8v-31l-8 -8q-39 0 -80 -9.5t-49 -15.5 q-29 -23 -29 -184v-393q0 -190 17 -211q12 -14 28 -25q23 -16 113 -16l8 -8v-31l-8 -8q-139 8 -223 8q-86 0 -226 -8l-8 8v31l8 8q98 6 121 36.5t23 168.5v530h-4q-51 -115 -190.5 -401.5t-180.5 -384.5h-29q-63 147 -214.5 444t-172.5 342h-4v-483q0 -190 16 -211 q12 -14 29 -25q23 -16 101 -16l8 -8v-31l-8 -8q-102 8 -176 8t-197 -8z" />
<glyph unicode="n" horiz-adv-x="1251" d="M68 0v31l8 8q76 0 98 16q16 10 29 25q16 21 16 211v454q0 100 -45 127q-33 20 -98 21l-8 8v31l8 8q98 -8 157 -8q39 0 117 8q51 -70 611 -707v408q0 190 -17 211q-12 14 -29 25q-23 16 -98 16l-8 8v31l8 8q98 -8 174 -8q86 0 185 8l8 -8v-31l-8 -8q-76 0 -99 -16 q-16 -10 -28 -25q-16 -20 -17 -211v-516q0 -100 6 -133h-77q-156 199 -670 768v-469q0 -190 16 -211q12 -14 29 -25q23 -16 98 -16l8 -8v-31l-8 -8q-98 8 -174 8q-86 0 -184 -8z" />
<glyph unicode="o" horiz-adv-x="1251" d="M106 465q0 236 140.5 363.5t378.5 127.5q254 0 387 -122.5t133 -346.5q0 -227 -147.5 -369.5t-372.5 -142.5q-238 0 -378.5 131.5t-140.5 358.5zM272 496q0 -225 94.5 -345t258.5 -120q178 0 266 120t88 300q0 201 -86 325.5t-268 124.5q-352 0 -353 -405z" />
<glyph unicode="p" horiz-adv-x="909" d="M76 0v31l8 8q78 0 100 16q16 10 29 25q16 21 16 211v393q0 162 -28 184q-8 6 -47 15.5t-70 9.5l-8 8v31l8 8q2 0 87 -4t132 -4q70 0 161 4t120 4q117 0 197.5 -57.5t80.5 -167.5q0 -135 -88 -211t-233 -76q-55 0 -97 8l-8 49l8 7q27 -16 80 -17q80 0 132.5 55.5 t52.5 139.5q0 102 -53.5 154.5t-147.5 52.5q-68 0 -123 -21q-8 -70 -8 -168v-397q0 -190 16 -211q12 -14 29 -25q23 -16 113 -16l8 -8v-31l-8 -8q-18 0 -101.5 4t-130.5 4t-132 -4t-87 -4z" />
<glyph unicode="q" horiz-adv-x="1251" d="M106 465q0 236 140.5 363.5t378.5 127.5q254 0 387 -122.5t133 -346.5q0 -227 -147.5 -369.5t-372.5 -142.5q-57 0 -58 -10q0 -16 92 -24q29 -2 179.5 -32t181.5 -30q68 0 135 58l8 -9v-53l-90 -84q-43 -22 -99 -22h-5q-49 0 -291 64.5t-283 64.5q-96 0 -145 -78h-19 l-20 22q68 119 219 119q33 0 33 16.5t-57 34.5q-141 51 -220.5 168t-79.5 285zM272 496q0 -225 94.5 -345t258.5 -120q178 0 266 120t88 300q0 201 -86 325.5t-268 124.5q-352 0 -353 -405z" />
<glyph unicode="r" d="M76 0v31l8 8q90 0 113 16q16 10 28 25q17 21 17 211v393q0 162 -29 184q-8 6 -49 15.5t-80 9.5l-8 8v31l8 8q18 0 101 -4t130 -4q33 0 141.5 4t145.5 4q125 0 197.5 -59.5t72.5 -151.5q0 -139 -151 -219l-103 -31l259 -356q37 -51 61.5 -67.5t67.5 -16.5l8 -8v-31l-8 -8 q-10 0 -52.5 4t-66.5 4q-23 0 -64 -4t-55 -4q-20 55 -137 222t-211 267l12 29q41 -4 62 -4q100 0 158.5 56t58.5 151q0 78 -52.5 121t-136.5 43q-49 0 -125 -15q-8 -78 -8 -235v-336q0 -190 17 -211q12 -14 28 -25q23 -16 113 -16l8 -8v-31l-8 -8q-18 0 -101.5 4t-130.5 4 t-130 -4t-101 -4z" />
<glyph unicode="s" horiz-adv-x="909" d="M100 655q0 127 107.5 214t288.5 87q139 0 264 -53l6 -12q-29 -82 -35 -168l-8 -8h-29l-8 8q0 72 -12 113q-88 57 -191 57q-119 0 -183 -55.5t-64 -130.5q0 -90 57 -125t160 -35q72 0 110.5 -2t93 -16.5t82 -40t49 -77t21.5 -126.5q0 -129 -120 -219.5t-277.5 -90.5 t-280.5 64l-6 10q20 78 31 187l8 8h29l8 -8q8 -104 14 -121q104 -76 213 -76q102 0 174 52t72 145q0 119 -63.5 150.5t-223.5 31.5q-287 0 -287 237z" />
<glyph unicode="t" horiz-adv-x="909" d="M45 924l14 16q86 -8 395.5 -8t395.5 8l14 -16q-14 -29 -14 -144q0 -10 1 -28.5t1 -24.5l-8 -8h-33l-8 8q-14 106 -33 119q-29 16 -172 16q-10 0 -31.5 -1t-34.5 -1q-4 -57 -4 -106v-463q0 -190 17 -211q12 -14 28 -25q23 -16 113 -16l8 -8v-31l-8 -8q-18 0 -101 4t-130 4 t-130 -4t-102 -4l-8 8v31l8 8q90 0 113 16q16 10 29 25q16 21 16 211v463q0 49 -4 106q-12 0 -33.5 1t-32.5 1q-143 0 -172 -16q-18 -12 -33 -119l-8 -8h-32l-9 8q0 6 1 24.5t1 28.5q0 115 -14 144z" />
<glyph unicode="u" horiz-adv-x="1138" d="M51 901v31l8 8q8 0 92.5 -4t131.5 -4q35 0 74.5 1t81.5 4t59 3l8 -8v-31l-8 -8q-74 0 -97 -16q-16 -10 -28 -25q-16 -20 -17 -211v-350q0 -102 64.5 -166t169.5 -64q121 0 194.5 62.5t73.5 222.5v309q0 102 -12 147.5t-39 62t-94 28.5l-8 8v31l8 8q123 -8 182 -8 q57 0 184 8l8 -8v-31l-8 -8q-68 0 -112 -29q-37 -41 -37 -209v-313q0 -182 -91 -274.5t-255 -92.5q-188 0 -281.5 76t-93.5 215v375q0 190 -16 211q-12 14 -29 25q-23 16 -105 16z" />
<glyph unicode="v" d="M18 901v31l9 8q127 -8 190 -8q88 0 232 8l8 -8v-31l-8 -8q-70 -4 -95.5 -14.5t-25.5 -36.5q0 -35 235 -639q158 412 190.5 505t32.5 119q0 33 -23.5 47.5t-88.5 18.5l-8 8v31l8 8q111 -8 166 -8q63 0 157 8l9 -8v-31l-9 -8q-55 0 -85.5 -41t-100.5 -217 q-229 -580 -248 -647h-86q-20 90 -270 717q-49 121 -79 154.5t-101 33.5z" />
<glyph unicode="w" horiz-adv-x="1593" d="M43 901v31l8 8q143 -8 232 -8q121 0 198 8l8 -8v-31l-8 -8q-90 -14 -109.5 -22.5t-19.5 -32.5q0 -43 170 -619h4q254 653 262 721h93q16 -78 293 -723h4q156 555 155 594q0 41 -21.5 54.5t-107.5 27.5l-8 8v31l8 8q123 -8 182 -8q53 0 156 8l8 -8v-31l-8 -8 q-45 0 -70.5 -18.5t-44.5 -73.5q-172 -530 -237 -813h-98q-25 109 -304 737q-238 -596 -268 -737h-98q-12 80 -119.5 446.5t-126.5 396.5q-18 29 -56 45.5t-69 16.5z" />
<glyph unicode="x" d="M35 901v31l8 8q160 -8 233 -8q66 0 189 8l8 -8v-31l-8 -8q-35 0 -72 -10.5t-37 -28.5q0 -23 179 -283q178 236 178 287q0 35 -82 35l-8 8v31l8 8q127 -8 190 -8q47 0 142 8l8 -8v-31l-8 -8q-78 0 -135.5 -56.5t-252.5 -324.5l265 -387q37 -55 60.5 -69.5t80.5 -16.5l8 -8 v-31l-8 -8q-131 8 -201 8q-63 0 -198 -8l-9 8v31l9 8q90 0 90 37q0 18 -47 92l-148 215q-195 -248 -194 -293q0 -51 108 -51l8 -8v-31l-8 -8q-115 8 -172 8q-59 0 -174 -8l-8 8v29l8 10q61 4 100.5 35t139.5 164l151 204q-145 223 -208.5 309.5t-99.5 114t-85 27.5z" />
<glyph unicode="y" horiz-adv-x="909" d="M4 872l180 76q74 0 165 -147.5t145 -311.5q180 309 272 451h119v-31q-86 -82 -171 -198.5t-132 -210.5q-23 -49 -29 -82t-6 -127q0 -190 16 -211q12 -14 29 -25q23 -16 113 -16l8 -8v-31l-8 -8q-18 0 -101.5 4t-130.5 4t-130 -4t-101 -4l-9 8v31l9 8q90 0 112 16 q16 10 29 25q16 21 16 211v49q0 61 -60 181t-140 218.5t-127 98.5q-16 0 -54 -7z" />
<glyph unicode="z" d="M72 -8v51q225 274 618 817q-387 0 -475 -22q-41 -102 -45 -140h-47q14 109 14 234l15 8q143 -8 374 -8q166 0 383 8v-35q-428 -545 -620 -831q72 -2 213 -2q236 0 313 18q25 35 53 152h47q-10 -88 -10 -242l-8 -8q-43 0 -190.5 4t-229.5 4q-78 0 -219 -4t-186 -4z" />
<glyph unicode="{" horiz-adv-x="681" d="M121 457q90 29 120.5 84t30.5 151v385q0 164 61.5 238t227.5 74v-25q-100 -23 -135 -89.5t-35 -180.5v-369q0 -111 -32.5 -175.5t-139.5 -90.5v-4q106 -27 139 -90.5t33 -174.5v-370q0 -115 35 -181.5t135 -89.5v-24q-166 0 -227.5 73.5t-61.5 237.5v387 q0 96 -30.5 150.5t-120.5 83.5z" />
<glyph unicode="|" horiz-adv-x="454" d="M178 -512v2048h98v-2048h-98z" />
<glyph unicode="}" horiz-adv-x="681" d="M121 -451q100 23 135 89.5t35 181.5v368q0 111 32.5 175.5t139.5 91.5v4q-106 27 -139 90t-33 174v371q0 115 -35 181t-135 89v25q166 0 227.5 -74t61.5 -238v-387q0 -96 30.5 -150.5t120.5 -82.5q-90 -29 -120.5 -84.5t-30.5 -151.5v-385q0 -164 -61.5 -237.5 t-227.5 -73.5v24z" />
<glyph unicode="~" horiz-adv-x="1228" d="M141 461q92 176 256 176q80 0 235.5 -69.5t201.5 -69.5q39 0 75.5 25.5t52 45t52.5 68.5l73 -62q-41 -55 -67.5 -85.5t-77.5 -60.5t-111 -30q-78 0 -213 70q-131 70 -231 69.5t-172 -139.5z" />
<glyph unicode="&#xa1;" horiz-adv-x="794" d="M291 811q0 45 30.5 76t75.5 31t76 -31t31 -76t-31 -75.5t-76 -30.5t-75.5 30.5t-30.5 75.5zM301 -410q0 18 8 129l58 760q2 23 3 41.5t4 32.5t8 21.5t15.5 7.5t15.5 -7.5t8 -21.5t4 -32.5t3 -41.5l57 -760q8 -111 9 -129q0 -86 -96.5 -86t-96.5 86z" />
<glyph unicode="&#xa2;" d="M168 424q0 76 13.5 136.5t32.5 94t40.5 60t38 33t22.5 14.5l211 119v221h64v-205q12 4 18 4q8 2 25 2q88 0 207 -35l8 -8q-14 -78 -14 -207l-9 -12h-47q-4 45 -16 113q-47 43 -172 57v-717q31 -8 61 -8q102 0 195 59l10 -6v-47l-203 -110q-10 -6 -63 -7v-208h-64v215 q-170 27 -264 148.5t-94 293.5zM322 498q0 -139 57 -235.5t147 -139.5v686q-104 -20 -154 -106.5t-50 -204.5z" />
<glyph unicode="&#xa3;" d="M33 68q0 41 149 57q53 96 70.5 172t17.5 231q0 20 -1 43t-3 50.5t-2 44.5l-190 -9v80l190 -8q0 25 -3 73t-3 72q0 131 24.5 209t104.5 152q78 72 184.5 121t214.5 49q131 0 205 -57q-20 -76 -37 -256h-47q0 96 -14 125q-27 43 -80 72.5t-104 29.5q-47 0 -122 -32 t-108 -105q-55 -123 -55 -322q0 -8 6 -131q250 0 387 8v-86q-305 14 -387 15q-6 -109 -16.5 -171.5t-50 -162t-115.5 -199.5q147 16 241 17q61 0 180 -10.5t179 -10.5q25 0 41 13.5t24.5 45t10.5 53t6 68.5h53q-12 -123 -12 -159q0 -90 2 -125l-41 -37q-12 -12 -55 -13 q-104 0 -310 45q-223 49 -307 50q-37 0 -45 -13q-10 -16 -55 -49t-62 -33q-27 0 -37 21q-29 57 -28 72z" />
<glyph unicode="&#xa4;" d="M102 334l88 92q-88 111 -88 256q0 143 88 254l-88 92l62 64l88 -97q111 96 260.5 96.5t257.5 -96.5l88 97l64 -64l-91 -92q90 -109 91 -254q0 -147 -91 -256l91 -92l-64 -62l-88 95q-106 -94 -258 -94.5t-260 94.5l-88 -95zM201 682q0 -129 91 -220t220 -91t220 91 t91 220t-91 220t-220 91t-220 -91t-91 -220z" />
<glyph unicode="&#xa5;" d="M25 1333q88 25 170 72q66 -31 122 -120t89 -175l155 -405l264 544q16 31 28.5 60.5t29 50t30.5 20.5h86v-41q-63 -59 -111 -138t-149 -300q-82 -182 -106 -244h90q119 0 184 9l13 -15v-51l-13 -14q-47 8 -184 8h-107q-6 -25 -6 -43v-150h113q119 0 184 9l13 -15v-51 l-13 -14q-47 8 -184 8h-113v-80q0 -131 2 -154q6 -57 123 -57l8 -8v-39l-8 -8q-74 8 -190 8q-121 0 -195 -8l-8 8v39l8 8q111 0 121 57q4 23 4 154v80h-115q-137 0 -184 -8l-12 14v51l12 15q66 -8 184 -9h115v174l-6 19h-109q-137 0 -184 -8l-12 14v51l12 15q66 -8 184 -9 h95q-82 213 -179 400q-51 100 -94 152.5t-66.5 63.5t-54.5 11h-28z" />
<glyph unicode="&#xa6;" horiz-adv-x="454" d="M178 -358v716h98v-716h-98zM178 666v716h98v-716h-98z" />
<glyph unicode="&#xa7;" d="M102 541q0 172 179 239q-37 29 -56.5 46.5t-36 53t-16.5 83.5q0 133 125 287.5t299 154.5q96 0 162.5 -40t66.5 -95q0 -39 -22.5 -61.5t-54.5 -22.5q-31 0 -56.5 28.5t-62.5 57t-97 28.5q-76 0 -158.5 -62t-82.5 -175q0 -88 68.5 -139.5t183.5 -87.5q78 -23 115.5 -36.5 t98 -40t89 -54t52.5 -71.5t24 -97q0 -90 -41 -146.5t-119 -107.5q147 -78 147 -236q0 -178 -139 -327.5t-324 -149.5q-137 0 -235 68.5t-98 181.5q43 43 82 92l26 -8q6 -25 13.5 -46.5t30 -62.5t51 -70.5t78.5 -52t110 -22.5q104 0 190 84t86 215q0 66 -22.5 114t-66.5 76.5 t-85 45t-100 30.5q-92 25 -135 37t-106.5 39.5t-91.5 57.5t-49.5 78t-21.5 114zM213 606q0 -125 94 -178t416 -127q88 84 88 172q0 141 -262 215q-20 6 -115.5 37t-99.5 31q-29 0 -75 -41t-46 -109z" />
<glyph unicode="&#xa8;" horiz-adv-x="569" d="M-10 1212q0 41 27.5 69t68.5 28t68.5 -28t27.5 -69t-27.5 -68.5t-68.5 -27.5t-68.5 27.5t-27.5 68.5zM387 1212q0 41 27.5 69t68.5 28t69 -28t28 -69t-28 -68.5t-69 -27.5t-68.5 27.5t-27.5 68.5z" />
<glyph unicode="&#xa9;" horiz-adv-x="1638" d="M104 690q0 297 209 506t506 209t506 -209t209 -506t-209 -506t-506 -209t-506 209t-209 506zM203 690q0 -260 180 -441t436 -181t436.5 181t180.5 441t-180.5 441.5t-436.5 181.5t-436 -181.5t-180 -441.5zM391 694q0 182 129 302t340 120q133 0 234 -39q41 -16 41 -47 v-151h-33q0 80 -58.5 135t-191.5 55q-158 0 -242 -100.5t-84 -266.5q0 -182 87 -287.5t259 -105.5q193 0 267 178h30l-36 -157q-6 -20 -70 -39q-104 -29 -215 -29q-227 0 -342 121t-115 311z" />
<glyph unicode="&#xaa;" horiz-adv-x="591" d="M39 977q0 43 20 84q8 16 110.5 50t199.5 46q0 33 -2 54.5t-13.5 54t-39 50t-72.5 17.5q-94 0 -95 -61q0 -31 7 -51l-7 -11q-37 -10 -61.5 -10t-24.5 35q0 37 27 57q18 16 42 33.5t45.5 31t49 23t54.5 9.5q20 0 41.5 -3.5t62.5 -17.5t65.5 -53t24.5 -98q0 -29 -3 -92.5 t-3 -100.5q0 -121 8 -141q31 -10 70 -11l8 -6v-20l-6 -6q-45 6 -90 6q-39 0 -88 -6l-7 6q6 37 7 86q-102 -61 -121 -78q-27 -23 -62 -23q-78 0 -112.5 45.5t-34.5 100.5zM137 1001q0 -43 22.5 -67.5t39 -27.5t30.5 -3q48 1 140 62v159q-70 -8 -133.5 -29.5t-79.5 -31.5 q-18 -12 -19 -62z" />
<glyph unicode="&#xab;" d="M162 444q0 29 22 52l322 340l41 -17v-8l-266 -367l266 -366v-8l-41 -17l-311 336q-33 37 -33 55zM477 444q0 29 23 52l321 340l41 -17v-8l-266 -367l266 -366v-8l-41 -17l-311 336q-33 37 -33 55z" />
<glyph unicode="&#xac;" horiz-adv-x="1228" d="M96 670v98h1037v-541h-99v443h-938z" />
<glyph unicode="&#xad;" horiz-adv-x="796" d="M102 428q20 29 41 125q33 0 90.5 -2t104.5 -3t88 -1q43 0 129 3t129 3l10 -16q-16 -10 -29.5 -52.5t-13.5 -72.5q-252 6 -254 6q-41 0 -89 -1t-105.5 -3t-89.5 -2z" />
<glyph unicode="&#xae;" horiz-adv-x="1638" d="M104 690q0 297 209 506t506 209t506 -209t209 -506t-209 -506t-506 -209t-506 209t-209 506zM203 690q0 -260 180 -441t436 -181t436.5 181t180.5 441t-180.5 441.5t-436.5 181.5t-436 -181.5t-180 -441.5zM479 293v41q53 0 78 21.5t25 82.5v510q0 94 -103 99v40h361 q113 0 186.5 -49t73.5 -145q0 -84 -50.5 -143.5t-131.5 -85.5l172 -250q37 -53 56 -66.5t73 -13.5v-41h-117q-37 0 -64.5 22.5t-66.5 77.5l-172 256h-107v-211q0 -61 26.5 -82.5t94.5 -21.5v-41h-334zM692 690h113q166 0 166 191q0 86 -48.5 126t-125.5 40h-105v-357z" />
<glyph unicode="&#xaf;" horiz-adv-x="569" d="M12 1165v99h545v-99h-545z" />
<glyph unicode="&#xb0;" horiz-adv-x="819" d="M117 1096q0 121 86 207t206.5 86t206.5 -86t86 -207t-86 -207t-206.5 -86t-206.5 86t-86 207zM215 1096q0 -80 57.5 -137.5t137 -57.5t137 57.5t57.5 137.5t-57.5 137t-137 57t-137 -57t-57.5 -137z" />
<glyph unicode="&#xb1;" horiz-adv-x="1228" d="M96 0v98h1037v-98h-1037zM96 561v98h469v377h99v-377h469v-98h-469v-377h-99v377h-469z" />
<glyph unicode="&#xb2;" horiz-adv-x="665" d="M55 549v29l72 67q168 158 246 264.5t78 212.5q0 90 -49.5 132t-131.5 42q-47 0 -77.5 -10t-49 -34.5t-27 -44t-20.5 -58.5l-28 18l26 103q12 47 27.5 63.5t75.5 36.5q55 18 116 19q98 0 177 -54.5t79 -158.5q0 -145 -153 -308l-211 -217v-4q23 -6 114 -6q164 0 283 18 l8 -10q-8 -23 -8 -43q0 -37 8 -49l-12 -8q-29 0 -121 4t-143 4q-90 0 -279 -8z" />
<glyph unicode="&#xb3;" horiz-adv-x="665" d="M49 707l31 12q20 -33 31.5 -46.5t38 -40t62.5 -38.5t81 -12q88 0 146.5 62.5t58.5 166.5q0 92 -51.5 132t-108.5 38q-43 0 -98 -23h-4l-19 23v33l8 8h49q63 0 117.5 37t54.5 112q0 61 -38.5 93t-102.5 32q-66 0 -95.5 -21.5t-64.5 -80.5l-30 18l59 138q45 39 162 39 q70 0 118 -21.5t66.5 -54.5t24.5 -53.5t6 -38.5q0 -63 -42 -114.5t-103 -80.5q-16 -6 -16.5 -12t44.5 -8q66 -2 124 -46.5t58 -130.5q0 -109 -92 -198.5t-276 -89.5q-61 0 -133 14q-6 23 -17.5 47.5t-27 56t-21.5 48.5z" />
<glyph unicode="&#xb4;" horiz-adv-x="569" d="M135 1081l295 289q14 14 25.5 26.5t28 20.5t34.5 8q25 0 46.5 -19.5t21.5 -49.5q0 -43 -35 -64l-344 -211h-72z" />
<glyph unicode="&#xb6;" horiz-adv-x="1228" d="M133 889q0 61 22.5 110.5t54.5 80t89 52t102 33t120 16.5t116 6t117 1q0 113 -29 180l14 21q29 -8 45 -9q2 0 56 9l14 -21q-29 -70 -29 -180q92 0 230 26l8 -14q-14 -16 -14 -55q0 -43 14 -51l-8 -15q-90 37 -230 37q-2 -418 21 -1116q4 -107 43 -168l-17 -20l-106 12 q-35 16 -59.5 48t-24.5 65q0 14 9 78.5t14 105.5q49 541 49 995q-53 0 -79 -1t-61.5 -7t-51 -20.5t-32 -39t-22.5 -63.5t-6 -96q0 -102 10 -160.5t38 -86.5t56.5 -34t87.5 -6l6 -8l-18 -39q-61 0 -97 1t-101.5 7t-106.5 18.5t-92.5 36t-81 58.5t-50 89t-20.5 124z" />
<glyph unicode="&#xb7;" horiz-adv-x="512" d="M150 647q0 45 30.5 76t75.5 31t75.5 -31t30.5 -76t-30.5 -75.5t-75.5 -30.5t-75.5 30.5t-30.5 75.5z" />
<glyph unicode="&#xb8;" horiz-adv-x="569" d="M78 -412l26 58q94 -25 129 -25q61 0 92 25.5t31 56.5q0 84 -106 84q-37 0 -57 -10l-31 10l90 213h72l-62 -150q43 16 76 17q61 0 104 -40t43 -101q0 -84 -68.5 -126t-162.5 -42q-106 -1 -176 30z" />
<glyph unicode="&#xb9;" horiz-adv-x="665" d="M74 1280l8 8q172 23 332 101l18 -5q-12 -82 -12 -174v-512q0 -74 32.5 -91t135.5 -17l4 -10v-23l-4 -8q-147 8 -219 8q-78 0 -230 -8l-4 8v23l4 10q123 6 146.5 24.5t23.5 104.5v584l-223 -70z" />
<glyph unicode="&#xba;" horiz-adv-x="665" d="M41 1106q0 86 32.5 146.5t84 88t94.5 38t84 10.5q156 0 222.5 -74t66.5 -178q0 -147 -86 -226.5t-224 -79.5q-121 0 -197.5 74t-76.5 201zM160 1141q0 -104 41 -186.5t135 -82.5q96 0 133 73t37 163q0 131 -51.5 185.5t-120.5 54.5q-68 0 -121 -47.5t-53 -159.5z" />
<glyph unicode="&#xbb;" d="M162 70v8l266 366l-266 367v8l41 17l311 -336q33 -37 33 -56q0 -29 -23 -51l-321 -340zM477 70v8l266 366l-266 367v8l41 17l311 -336q33 -37 33 -56q0 -29 -22 -51l-322 -340z" />
<glyph unicode="&#xbc;" horiz-adv-x="1536" d="M74 1280l8 8q172 23 332 101l18 -5q-12 -82 -12 -174v-512q0 -74 32.5 -91t135.5 -17l4 -10v-23l-4 -8q-147 8 -219 8q-78 0 -230 -8l-4 8v23l4 10q123 6 146.5 24.5t23.5 104.5v584l-223 -70zM289 -78l923 1520h86l-923 -1520h-86zM842 274q205 289 428 557h61 q-8 -66 -8 -114v-398h35q59 0 96 13l6 -6q-4 -29 -4 -39q0 -4 4 -41l-6 -6q-35 8 -96 8h-35v-131q0 -55 21.5 -67.5t111.5 -16.5l6 -10v-23l-6 -8q-123 8 -186 8q-76 0 -228 -8l-4 8v23l4 10q123 6 146.5 23.5t23.5 101.5v90h-192q-111 0 -168 -8zM934 319h278v373h-4 q-39 -41 -151.5 -191.5t-122.5 -181.5z" />
<glyph unicode="&#xbd;" horiz-adv-x="1536" d="M74 1280l8 8q172 23 332 101l18 -5q-12 -82 -12 -174v-512q0 -74 32.5 -91t135.5 -17l4 -10v-23l-4 -8q-147 8 -219 8q-78 0 -230 -8l-4 8v23l4 10q123 6 146.5 24.5t23.5 104.5v584l-223 -70zM276 -78l924 1520h86l-924 -1520h-86zM926 -8v28l71 68q168 158 246 264.5 t78 212.5q0 90 -49 132t-131 42q-47 0 -78 -10t-49.5 -34.5t-26.5 -44t-20 -58.5l-29 18l27 103q12 47 27.5 63.5t74.5 36.5q55 18 117 18q98 0 177 -54t79 -159q0 -145 -154 -307l-211 -217v-4q23 -6 115 -6q164 0 283 18l8 -10q-8 -23 -8 -43q0 -37 8 -49l-13 -8 q-29 0 -121 4t-143 4q-90 0 -278 -8z" />
<glyph unicode="&#xbe;" horiz-adv-x="1536" d="M49 707l31 12q20 -33 31.5 -46.5t38 -40t62.5 -38.5t81 -12q88 0 146.5 62.5t58.5 166.5q0 92 -51.5 132t-108.5 38q-43 0 -98 -23h-4l-19 23v33l8 8h49q63 0 117.5 37t54.5 112q0 61 -38.5 93t-102.5 32q-66 0 -95.5 -21.5t-64.5 -80.5l-30 18l59 138q45 39 162 39 q70 0 118 -21.5t66.5 -54.5t24.5 -53.5t6 -38.5q0 -63 -42 -114.5t-103 -80.5q-16 -6 -16.5 -12t44.5 -8q66 -2 124 -46.5t58 -130.5q0 -109 -92 -198.5t-276 -89.5q-61 0 -133 14q-6 23 -17.5 47.5t-27 56t-21.5 48.5zM289 -78l923 1520h86l-923 -1520h-86zM842 274 q205 289 428 557h61q-8 -66 -8 -114v-398h35q59 0 96 13l6 -6q-4 -29 -4 -39q0 -4 4 -41l-6 -6q-35 8 -96 8h-35v-131q0 -55 21.5 -67.5t111.5 -16.5l6 -10v-23l-6 -8q-123 8 -186 8q-76 0 -228 -8l-4 8v23l4 10q123 6 146.5 23.5t23.5 101.5v90h-192q-111 0 -168 -8z M934 319h278v373h-4q-39 -41 -151.5 -191.5t-122.5 -181.5z" />
<glyph unicode="&#xbf;" horiz-adv-x="909" d="M109 -231q0 82 38.5 169t92 153.5t106.5 141.5q104 141 105 228q0 70 -56 119l6 10l31 12q33 -23 52.5 -40t42 -63t22.5 -106q0 -127 -178 -395q-109 -163 -109 -274q0 -70 40 -113t99 -43q57 0 95 59q20 31 38.5 31t63.5 -22.5t45 -49.5q0 -14 -11 -30.5t-54 -34 t-111 -17.5q-16 0 -41 2t-86 15.5t-108.5 39t-85 80t-37.5 128.5zM334 811q0 45 30.5 76t75.5 31t76 -31t31 -76t-31 -75.5t-76 -30.5t-75.5 30.5t-30.5 75.5z" />
<glyph unicode="&#xc0;" horiz-adv-x="1478" d="M14 0v39l9 8q74 6 97 18.5t40 40.5q82 135 129 246l370 867q23 53 39.5 98t28.5 76h72q14 -52 37 -107l448 -1093q39 -98 64.5 -119t107.5 -27l8 -8v-39l-8 -8q-213 8 -237 8q-86 0 -246 -8l-8 8v39l8 8q23 2 43 3t38.5 5t32 9.5t21.5 14.5t8 21q0 14 -22 70l-133 350 q-129 6 -256 6q-129 0 -259 -6l-49 -119q-98 -231 -108 -303q14 -29 39.5 -37t109.5 -14l8 -8v-39l-8 -8q-145 8 -196 8q-43 0 -120 -4t-99 -4zM439 1731q0 31 21.5 50t45.5 19q18 0 34.5 -8t28 -20.5t25.5 -26.5l295 -289h-72l-344 211q-35 20 -34 64zM479 604q27 0 74 -2 t85 -3t73 -1q2 0 223 6l-221 537z" />
<glyph unicode="&#xc1;" horiz-adv-x="1478" d="M14 0v39l9 8q74 6 97 18.5t40 40.5q82 135 129 246l370 867q23 53 39.5 98t28.5 76h72q14 -52 37 -107l448 -1093q39 -98 64.5 -119t107.5 -27l8 -8v-39l-8 -8q-213 8 -237 8q-86 0 -246 -8l-8 8v39l8 8q23 2 43 3t38.5 5t32 9.5t21.5 14.5t8 21q0 14 -22 70l-133 350 q-129 6 -256 6q-129 0 -259 -6l-49 -119q-98 -231 -108 -303q14 -29 39.5 -37t109.5 -14l8 -8v-39l-8 -8q-145 8 -196 8q-43 0 -120 -4t-99 -4zM479 604q27 0 74 -2t85 -3t73 -1q2 0 223 6l-221 537zM590 1456l295 289q14 14 25.5 26.5t28 20.5t34.5 8q25 0 46.5 -19.5 t21.5 -49.5q0 -43 -35 -64l-344 -211h-72z" />
<glyph unicode="&#xc2;" horiz-adv-x="1478" d="M14 0v39l9 8q74 6 97 18.5t40 40.5q82 135 129 246l370 867q23 53 39.5 98t28.5 76h72q14 -52 37 -107l448 -1093q39 -98 64.5 -119t107.5 -27l8 -8v-39l-8 -8q-213 8 -237 8q-86 0 -246 -8l-8 8v39l8 8q23 2 43 3t38.5 5t32 9.5t21.5 14.5t8 21q0 14 -22 70l-133 350 q-129 6 -256 6q-129 0 -259 -6l-49 -119q-98 -231 -108 -303q14 -29 39.5 -37t109.5 -14l8 -8v-39l-8 -8q-145 8 -196 8q-43 0 -120 -4t-99 -4zM444 1456l252 344h111l252 -344h-72l-235 215l-236 -215h-72zM479 604q27 0 74 -2t85 -3t73 -1q2 0 223 6l-221 537z" />
<glyph unicode="&#xc3;" horiz-adv-x="1478" d="M14 0v39l9 8q74 6 97 18.5t40 40.5q82 135 129 246l370 867q23 53 39.5 98t28.5 76h72q14 -52 37 -107l448 -1093q39 -98 64.5 -119t107.5 -27l8 -8v-39l-8 -8q-213 8 -237 8q-86 0 -246 -8l-8 8v39l8 8q23 2 43 3t38.5 5t32 9.5t21.5 14.5t8 21q0 14 -22 70l-133 350 q-129 6 -256 6q-129 0 -259 -6l-49 -119q-98 -231 -108 -303q14 -29 39.5 -37t109.5 -14l8 -8v-39l-8 -8q-145 8 -196 8q-43 0 -120 -4t-99 -4zM422 1505q10 78 60.5 143.5t131.5 65.5q41 0 240 -71q68 -23 78 -23q67 0 94 98h55q-39 -209 -192 -208q-35 0 -62.5 9 t-132.5 52q-76 33 -110 33q-78 0 -107 -99h-55zM479 604q27 0 74 -2t85 -3t73 -1q2 0 223 6l-221 537z" />
<glyph unicode="&#xc4;" horiz-adv-x="1478" d="M14 0v39l9 8q74 6 97 18.5t40 40.5q82 135 129 246l370 867q23 53 39.5 98t28.5 76h72q14 -52 37 -107l448 -1093q39 -98 64.5 -119t107.5 -27l8 -8v-39l-8 -8q-213 8 -237 8q-86 0 -246 -8l-8 8v39l8 8q23 2 43 3t38.5 5t32 9.5t21.5 14.5t8 21q0 14 -22 70l-133 350 q-129 6 -256 6q-129 0 -259 -6l-49 -119q-98 -231 -108 -303q14 -29 39.5 -37t109.5 -14l8 -8v-39l-8 -8q-145 8 -196 8q-43 0 -120 -4t-99 -4zM457 1587q0 41 27.5 69t68.5 28t68.5 -28t27.5 -69t-27.5 -68.5t-68.5 -27.5t-68.5 27.5t-27.5 68.5zM479 604q27 0 74 -2t85 -3 t73 -1q2 0 223 6l-221 537zM854 1587q0 41 27.5 69t68.5 28t69 -28t28 -69t-28 -68.5t-69 -27.5t-68.5 27.5t-27.5 68.5z" />
<glyph unicode="&#xc5;" horiz-adv-x="1478" d="M14 0v39l9 8q74 6 97 18.5t40 40.5q82 135 129 246l370 867q23 53 39.5 98t28.5 76h72q14 -52 37 -107l448 -1093q39 -98 64.5 -119t107.5 -27l8 -8v-39l-8 -8q-213 8 -237 8q-86 0 -246 -8l-8 8v39l8 8q23 2 43 3t38.5 5t32 9.5t21.5 14.5t8 21q0 14 -22 70l-133 350 q-129 6 -256 6q-129 0 -259 -6l-49 -119q-98 -231 -108 -303q14 -29 39.5 -37t109.5 -14l8 -8v-39l-8 -8q-145 8 -196 8q-43 0 -120 -4t-99 -4zM479 604q27 0 74 -2t85 -3t73 -1q2 0 223 6l-221 537zM559 1624q0 92 59.5 145.5t145.5 53.5t145 -53.5t59 -145.5t-59 -145 t-145 -53t-145.5 53t-59.5 145zM639 1624q0 -86 38 -121.5t87 -35.5t87 36.5t38 120.5t-38 121t-87 37t-87 -36t-38 -122z" />
<glyph unicode="&#xc6;" horiz-adv-x="1820" d="M6 0v39l8 8q45 0 70 17.5t68 89.5q162 268 372.5 655t249.5 494q-12 2 -87 12t-114 18l-8 8v39l8 9q305 -8 594 -9q92 0 259 4.5t221 4.5l34 -25l-16 -236h-33l-8 9q0 25 -15.5 71.5t-31.5 67.5q-94 27 -262 27q-145 0 -205 -13q-12 -119 -12 -272q0 -2 6 -242 q41 -8 188 -8q217 0 314 29l8 -9v-110l-8 -8q-39 18 -269 18q-150 0 -211 -8l-22 -23q-6 -147 -6 -149q0 -201 12 -418q94 -12 250 -12q184 0 270 31q37 76 60 155h49q-16 -197 -17 -248l-24 -24q-211 8 -475 8q-248 0 -377 -8l-8 8v39l8 8q63 10 74.5 39t11.5 172v283 q-100 8 -232 8q-137 0 -241 -25q-41 -82 -74 -144.5t-55.5 -109.5t-38 -81.5t-22.5 -59.5t-7 -41q0 -23 34 -30t124 -11l8 -8v-39l-8 -8q-23 0 -90.5 4t-104.5 4q-39 0 -113.5 -4t-97.5 -4zM510 621h422v548q0 94 -6 121h-31q-66 -98 -84 -131z" />
<glyph unicode="&#xc7;" horiz-adv-x="1366" d="M123 684q0 346 190.5 533.5t540.5 187.5q256 0 438 -76q-20 -100 -32 -254h-56q-6 96 -15 121t-56 55q-119 82 -304 82q-143 0 -248.5 -53t-160.5 -143t-80 -188.5t-25 -207.5q0 -96 19.5 -191t63.5 -186.5t108.5 -161t162 -112.5t216.5 -43q80 0 202.5 40t167.5 93 l25 -22l-47 -105q-174 -78 -385 -78h-6l-51 -125q43 16 75 17q61 0 104.5 -40t43.5 -101q0 -84 -68.5 -126t-163.5 -42q-106 0 -176 30l27 58q94 -25 129 -25q61 0 92 25.5t31 56.5q0 84 -107 84q-37 0 -57 -10l-31 10l82 188q-162 12 -286 75t-190.5 142.5t-108.5 181 t-53 174.5t-11 136z" />
<glyph unicode="&#xc8;" horiz-adv-x="1138" d="M82 1341v39l8 9q37 0 177.5 -4.5t217.5 -4.5q92 0 259 4.5t221 4.5l34 -25l-16 -236h-33l-8 9q0 25 -15.5 71.5t-31.5 67.5q-92 27 -262 27q-145 0 -205 -13q-12 -119 -12 -272q0 -2 6 -242q41 -8 188 -8q217 0 314 29l8 -9v-110l-8 -8q-39 18 -269 18q-150 0 -211 -8 l-22 -23q-6 -147 -6 -149q0 -201 12 -418q94 -12 250 -12q182 0 270 31q37 76 60 155h49q-16 -197 -17 -248l-24 -24q-211 8 -475 8q-248 0 -377 -8l-8 8v39l8 8q63 10 74.5 39t11.5 172v864q0 117 -6 154q-2 14 -17.5 28.5t-23.5 16.5q-16 6 -113 12zM269 1731 q0 31 21.5 50t45.5 19q18 0 34.5 -8t28 -20.5t25.5 -26.5l295 -289h-72l-344 211q-35 20 -34 64z" />
<glyph unicode="&#xc9;" horiz-adv-x="1138" d="M82 1341v39l8 9q37 0 177.5 -4.5t217.5 -4.5q92 0 259 4.5t221 4.5l34 -25l-16 -236h-33l-8 9q0 25 -15.5 71.5t-31.5 67.5q-92 27 -262 27q-145 0 -205 -13q-12 -119 -12 -272q0 -2 6 -242q41 -8 188 -8q217 0 314 29l8 -9v-110l-8 -8q-39 18 -269 18q-150 0 -211 -8 l-22 -23q-6 -147 -6 -149q0 -201 12 -418q94 -12 250 -12q182 0 270 31q37 76 60 155h49q-16 -197 -17 -248l-24 -24q-211 8 -475 8q-248 0 -377 -8l-8 8v39l8 8q63 10 74.5 39t11.5 172v864q0 117 -6 154q-2 14 -17.5 28.5t-23.5 16.5q-16 6 -113 12zM420 1456l295 289 q14 14 25.5 26.5t28 20.5t34.5 8q25 0 46.5 -19.5t21.5 -49.5q0 -43 -35 -64l-344 -211h-72z" />
<glyph unicode="&#xca;" horiz-adv-x="1138" d="M82 1341v39l8 9q37 0 177.5 -4.5t217.5 -4.5q92 0 259 4.5t221 4.5l34 -25l-16 -236h-33l-8 9q0 25 -15.5 71.5t-31.5 67.5q-92 27 -262 27q-145 0 -205 -13q-12 -119 -12 -272q0 -2 6 -242q41 -8 188 -8q217 0 314 29l8 -9v-110l-8 -8q-39 18 -269 18q-150 0 -211 -8 l-22 -23q-6 -147 -6 -149q0 -201 12 -418q94 -12 250 -12q182 0 270 31q37 76 60 155h49q-16 -197 -17 -248l-24 -24q-211 8 -475 8q-248 0 -377 -8l-8 8v39l8 8q63 10 74.5 39t11.5 172v864q0 117 -6 154q-2 14 -17.5 28.5t-23.5 16.5q-16 6 -113 12zM262 1456l252 344h111 l252 -344h-72l-235 215l-236 -215h-72z" />
<glyph unicode="&#xcb;" horiz-adv-x="1138" d="M82 1341v39l8 9q37 0 177.5 -4.5t217.5 -4.5q92 0 259 4.5t221 4.5l34 -25l-16 -236h-33l-8 9q0 25 -15.5 71.5t-31.5 67.5q-92 27 -262 27q-145 0 -205 -13q-12 -119 -12 -272q0 -2 6 -242q41 -8 188 -8q217 0 314 29l8 -9v-110l-8 -8q-39 18 -269 18q-150 0 -211 -8 l-22 -23q-6 -147 -6 -149q0 -201 12 -418q94 -12 250 -12q182 0 270 31q37 76 60 155h49q-16 -197 -17 -248l-24 -24q-211 8 -475 8q-248 0 -377 -8l-8 8v39l8 8q63 10 74.5 39t11.5 172v864q0 117 -6 154q-2 14 -17.5 28.5t-23.5 16.5q-16 6 -113 12zM275 1587 q0 41 27.5 69t68.5 28t68.5 -28t27.5 -69t-27.5 -68.5t-68.5 -27.5t-68.5 27.5t-27.5 68.5zM672 1587q0 41 27.5 69t68.5 28t69 -28t28 -69t-28 -68.5t-69 -27.5t-68.5 27.5t-27.5 68.5z" />
<glyph unicode="&#xcc;" horiz-adv-x="681" d="M41 1731q0 31 21.5 50t45.5 19q18 0 34.5 -8t28 -20.5t25.5 -26.5l295 -289h-72l-344 211q-35 20 -34 64zM82 0v39l8 8q111 8 121 12q8 2 23.5 16.5t17.5 28.5q6 37 6 154v864q0 117 -6 154q-2 14 -17.5 28.5t-23.5 16.5q-10 4 -121 12l-8 8v39l8 9q29 0 117 -4.5 t135 -4.5t134 4.5t116 4.5l8 -9v-39l-8 -8q-111 -8 -121 -12q-8 -2 -23.5 -16.5t-17.5 -28.5q-6 -37 -6 -154v-864q0 -117 6 -154q2 -14 17.5 -28.5t23.5 -16.5q10 -4 121 -12l8 -8v-39l-8 -8q-29 0 -116 4t-134 4t-135 -4t-117 -4z" />
<glyph unicode="&#xcd;" horiz-adv-x="681" d="M82 0v39l8 8q111 8 121 12q8 2 23.5 16.5t17.5 28.5q6 37 6 154v864q0 117 -6 154q-2 14 -17.5 28.5t-23.5 16.5q-10 4 -121 12l-8 8v39l8 9q29 0 117 -4.5t135 -4.5t134 4.5t116 4.5l8 -9v-39l-8 -8q-111 -8 -121 -12q-8 -2 -23.5 -16.5t-17.5 -28.5q-6 -37 -6 -154 v-864q0 -117 6 -154q2 -14 17.5 -28.5t23.5 -16.5q10 -4 121 -12l8 -8v-39l-8 -8q-29 0 -116 4t-134 4t-135 -4t-117 -4zM192 1456l295 289q14 14 25.5 26.5t28 20.5t34.5 8q25 0 46.5 -19.5t21.5 -49.5q0 -43 -35 -64l-344 -211h-72z" />
<glyph unicode="&#xce;" horiz-adv-x="681" d="M34 1456l252 344h111l252 -344h-72l-235 215l-236 -215h-72zM82 0v39l8 8q111 8 121 12q8 2 23.5 16.5t17.5 28.5q6 37 6 154v864q0 117 -6 154q-2 14 -17.5 28.5t-23.5 16.5q-10 4 -121 12l-8 8v39l8 9q29 0 117 -4.5t135 -4.5t134 4.5t116 4.5l8 -9v-39l-8 -8 q-111 -8 -121 -12q-8 -2 -23.5 -16.5t-17.5 -28.5q-6 -37 -6 -154v-864q0 -117 6 -154q2 -14 17.5 -28.5t23.5 -16.5q10 -4 121 -12l8 -8v-39l-8 -8q-29 0 -116 4t-134 4t-135 -4t-117 -4z" />
<glyph unicode="&#xcf;" horiz-adv-x="681" d="M47 1587q0 41 27.5 69t68.5 28t68.5 -28t27.5 -69t-27.5 -68.5t-68.5 -27.5t-68.5 27.5t-27.5 68.5zM82 0v39l8 8q111 8 121 12q8 2 23.5 16.5t17.5 28.5q6 37 6 154v864q0 117 -6 154q-2 14 -17.5 28.5t-23.5 16.5q-10 4 -121 12l-8 8v39l8 9q29 0 117 -4.5t135 -4.5 t134 4.5t116 4.5l8 -9v-39l-8 -8q-111 -8 -121 -12q-8 -2 -23.5 -16.5t-17.5 -28.5q-6 -37 -6 -154v-864q0 -117 6 -154q2 -14 17.5 -28.5t23.5 -16.5q10 -4 121 -12l8 -8v-39l-8 -8q-29 0 -116 4t-134 4t-135 -4t-117 -4zM444 1587q0 41 27.5 69t68.5 28t69 -28t28 -69 t-28 -68.5t-69 -27.5t-68.5 27.5t-27.5 68.5z" />
<glyph unicode="&#xd0;" horiz-adv-x="1478" d="M59 690v70l9 8h159v354q0 117 -6 154q-2 14 -17.5 28.5t-23.5 16.5q-16 6 -112 12l-9 8v39l9 9q25 0 82 -3.5t113 -4.5t108 -1q86 0 221 4.5t180 4.5q303 0 467 -164t164 -465q0 -322 -208 -545t-527 -223q-61 0 -151.5 4t-145.5 4q-135 0 -230 -8l-8 8v39l8 8 q63 10 74.5 39t11.5 172v424h-159zM393 682q12 -551 13 -580q156 -39 245 -39q268 0 418 169t150 468q0 295 -139.5 452t-424.5 157q-121 0 -249 -19q0 -68 -6.5 -197.5t-6.5 -195.5v-129h400l8 -8v-70l-8 -8h-400z" />
<glyph unicode="&#xd1;" horiz-adv-x="1593" d="M80 0v39l8 8q35 0 56.5 1t41 14.5t29.5 20.5t19.5 44t12.5 60.5t6 93t3 116.5v158v590q0 90 -53 139t-115 49l-8 8v39l8 9q90 -8 164 -9q43 0 133 9q100 -170 360.5 -492t505.5 -604v749q0 188 -30.5 239.5t-139.5 51.5l-8 8v39l8 9q139 -8 209 -9q68 0 215 9l8 -9v-39 l-8 -8q-74 0 -102.5 -12t-47 -75.5t-18.5 -207.5v-848q0 -92 13 -198h-86q-43 68 -361.5 456t-560.5 672v-801q0 -127 18.5 -186t49 -72.5t98.5 -13.5l8 -8v-39l-8 -8q-23 0 -97.5 4t-113.5 4q-43 0 -119 -4t-90 -4zM467 1505q10 78 60.5 143.5t131.5 65.5q41 0 240 -71 q68 -23 78 -23q67 0 94 98h55q-39 -209 -192 -208q-35 0 -62.5 9t-132.5 52q-76 33 -110 33q-78 0 -107 -99h-55z" />
<glyph unicode="&#xd2;" horiz-adv-x="1593" d="M82 713q0 135 46 257t135 220t234.5 156.5t327.5 58.5q41 0 85 -4t115 -19.5t133.5 -42t129 -78t114.5 -120t78.5 -175t30.5 -235.5q0 -104 -23.5 -206.5t-78.5 -203t-137 -176t-210 -123t-286 -47.5q-336 0 -515 198t-179 540zM274 752q0 -162 34 -288t88.5 -203 t127 -127t143 -68.5t144.5 -18.5q104 0 188 32t137.5 86t91.5 117.5t56.5 139.5t26.5 138.5t8 123.5q0 133 -26.5 244.5t-85 205t-165 146.5t-249.5 53q-238 0 -378.5 -152.5t-140.5 -428.5zM496 1731q0 31 21.5 50t45.5 19q18 0 34.5 -8t28 -20.5t25.5 -26.5l295 -289h-72 l-344 211q-35 20 -34 64z" />
<glyph unicode="&#xd3;" horiz-adv-x="1593" d="M82 713q0 135 46 257t135 220t234.5 156.5t327.5 58.5q41 0 85 -4t115 -19.5t133.5 -42t129 -78t114.5 -120t78.5 -175t30.5 -235.5q0 -104 -23.5 -206.5t-78.5 -203t-137 -176t-210 -123t-286 -47.5q-336 0 -515 198t-179 540zM274 752q0 -162 34 -288t88.5 -203 t127 -127t143 -68.5t144.5 -18.5q104 0 188 32t137.5 86t91.5 117.5t56.5 139.5t26.5 138.5t8 123.5q0 133 -26.5 244.5t-85 205t-165 146.5t-249.5 53q-238 0 -378.5 -152.5t-140.5 -428.5zM647 1456l295 289q14 14 25.5 26.5t28 20.5t34.5 8q25 0 46.5 -19.5t21.5 -49.5 q0 -43 -35 -64l-344 -211h-72z" />
<glyph unicode="&#xd4;" horiz-adv-x="1593" d="M82 713q0 135 46 257t135 220t234.5 156.5t327.5 58.5q41 0 85 -4t115 -19.5t133.5 -42t129 -78t114.5 -120t78.5 -175t30.5 -235.5q0 -104 -23.5 -206.5t-78.5 -203t-137 -176t-210 -123t-286 -47.5q-336 0 -515 198t-179 540zM274 752q0 -162 34 -288t88.5 -203 t127 -127t143 -68.5t144.5 -18.5q104 0 188 32t137.5 86t91.5 117.5t56.5 139.5t26.5 138.5t8 123.5q0 133 -26.5 244.5t-85 205t-165 146.5t-249.5 53q-238 0 -378.5 -152.5t-140.5 -428.5zM489 1456l252 344h111l252 -344h-72l-235 215l-236 -215h-72z" />
<glyph unicode="&#xd5;" horiz-adv-x="1593" d="M82 713q0 135 46 257t135 220t234.5 156.5t327.5 58.5q41 0 85 -4t115 -19.5t133.5 -42t129 -78t114.5 -120t78.5 -175t30.5 -235.5q0 -104 -23.5 -206.5t-78.5 -203t-137 -176t-210 -123t-286 -47.5q-336 0 -515 198t-179 540zM274 752q0 -162 34 -288t88.5 -203 t127 -127t143 -68.5t144.5 -18.5q104 0 188 32t137.5 86t91.5 117.5t56.5 139.5t26.5 138.5t8 123.5q0 133 -26.5 244.5t-85 205t-165 146.5t-249.5 53q-238 0 -378.5 -152.5t-140.5 -428.5zM467 1505q10 78 60.5 143.5t131.5 65.5q41 0 240 -71q68 -23 78 -23q67 0 94 98 h55q-39 -209 -192 -208q-35 0 -62.5 9t-132.5 52q-76 33 -110 33q-78 0 -107 -99h-55z" />
<glyph unicode="&#xd6;" horiz-adv-x="1593" d="M82 713q0 135 46 257t135 220t234.5 156.5t327.5 58.5q41 0 85 -4t115 -19.5t133.5 -42t129 -78t114.5 -120t78.5 -175t30.5 -235.5q0 -104 -23.5 -206.5t-78.5 -203t-137 -176t-210 -123t-286 -47.5q-336 0 -515 198t-179 540zM274 752q0 -162 34 -288t88.5 -203 t127 -127t143 -68.5t144.5 -18.5q104 0 188 32t137.5 86t91.5 117.5t56.5 139.5t26.5 138.5t8 123.5q0 133 -26.5 244.5t-85 205t-165 146.5t-249.5 53q-238 0 -378.5 -152.5t-140.5 -428.5zM502 1587q0 41 27.5 69t68.5 28t68.5 -28t27.5 -69t-27.5 -68.5t-68.5 -27.5 t-68.5 27.5t-27.5 68.5zM899 1587q0 41 27.5 69t68.5 28t69 -28t28 -69t-28 -68.5t-69 -27.5t-68.5 27.5t-27.5 68.5z" />
<glyph unicode="&#xd7;" horiz-adv-x="1228" d="M152 129l389 389l-389 389l73 74l389 -389l390 389l73 -74l-389 -389l389 -389l-73 -74l-390 389l-389 -389z" />
<glyph unicode="&#xd8;" horiz-adv-x="1593" d="M61 12l185 181q-164 193 -164 520q0 135 46 257t135 220t234.5 156.5t327.5 58.5q303 0 488 -166l166 164l53 -49l-168 -166q147 -164 147 -457q0 -104 -23.5 -206.5t-78.5 -203t-137 -176t-210 -123t-286 -47.5q-303 0 -479 164l-180 -176zM274 752q1 -267 93 -441 l839 824q-133 199 -413 198q-238 0 -378.5 -152.5t-140.5 -428.5zM408 248q145 -201 403 -201q104 0 188 32t137.5 86t91.5 117.5t56.5 139.5t26.5 138.5t8 123.5q0 233 -76 385z" />
<glyph unicode="&#xd9;" horiz-adv-x="1478" d="M43 1341v39l8 9q29 0 117 -4.5t135 -4.5t134 4.5t114 4.5l8 -9v-39l-8 -8q-51 0 -75.5 -4t-47 -17.5t-30 -49t-11.5 -85t-4 -139.5v-454q0 -59 1 -93t8 -94.5t21.5 -96.5t44 -82t71.5 -70.5t106.5 -43t148.5 -18.5q72 0 131.5 12.5t99.5 38t69.5 52t47 70.5t28.5 77 t15.5 86t5.5 81.5t1 82.5v407q0 86 -1 137.5t-10.5 92.5t-17.5 58t-33.5 30.5t-46 15.5t-69.5 6l-9 8v39l9 9q25 0 104.5 -4.5t122.5 -4.5q37 0 105.5 4.5t90.5 4.5l9 -9v-39l-9 -8q-8 -2 -54 -5t-54 -3q-51 -6 -51 -262v-598q0 -260 -144.5 -375t-375.5 -115 q-111 0 -198 20.5t-143.5 49.5t-95.5 82t-58.5 94t-29.5 110.5t-11 108.5t-1 111v653q0 88 -32 108.5t-128 20.5zM451 1731q0 31 21.5 50t45.5 19q18 0 34.5 -8t28 -20.5t25.5 -26.5l295 -289h-72l-344 211q-35 20 -34 64z" />
<glyph unicode="&#xda;" horiz-adv-x="1478" d="M43 1341v39l8 9q29 0 117 -4.5t135 -4.5t134 4.5t114 4.5l8 -9v-39l-8 -8q-51 0 -75.5 -4t-47 -17.5t-30 -49t-11.5 -85t-4 -139.5v-454q0 -59 1 -93t8 -94.5t21.5 -96.5t44 -82t71.5 -70.5t106.5 -43t148.5 -18.5q72 0 131.5 12.5t99.5 38t69.5 52t47 70.5t28.5 77 t15.5 86t5.5 81.5t1 82.5v407q0 86 -1 137.5t-10.5 92.5t-17.5 58t-33.5 30.5t-46 15.5t-69.5 6l-9 8v39l9 9q25 0 104.5 -4.5t122.5 -4.5q37 0 105.5 4.5t90.5 4.5l9 -9v-39l-9 -8q-8 -2 -54 -5t-54 -3q-51 -6 -51 -262v-598q0 -260 -144.5 -375t-375.5 -115 q-111 0 -198 20.5t-143.5 49.5t-95.5 82t-58.5 94t-29.5 110.5t-11 108.5t-1 111v653q0 88 -32 108.5t-128 20.5zM602 1456l295 289q14 14 25.5 26.5t28 20.5t34.5 8q25 0 46.5 -19.5t21.5 -49.5q0 -43 -35 -64l-344 -211h-72z" />
<glyph unicode="&#xdb;" horiz-adv-x="1478" d="M43 1341v39l8 9q29 0 117 -4.5t135 -4.5t134 4.5t114 4.5l8 -9v-39l-8 -8q-51 0 -75.5 -4t-47 -17.5t-30 -49t-11.5 -85t-4 -139.5v-454q0 -59 1 -93t8 -94.5t21.5 -96.5t44 -82t71.5 -70.5t106.5 -43t148.5 -18.5q72 0 131.5 12.5t99.5 38t69.5 52t47 70.5t28.5 77 t15.5 86t5.5 81.5t1 82.5v407q0 86 -1 137.5t-10.5 92.5t-17.5 58t-33.5 30.5t-46 15.5t-69.5 6l-9 8v39l9 9q25 0 104.5 -4.5t122.5 -4.5q37 0 105.5 4.5t90.5 4.5l9 -9v-39l-9 -8q-8 -2 -54 -5t-54 -3q-51 -6 -51 -262v-598q0 -260 -144.5 -375t-375.5 -115 q-111 0 -198 20.5t-143.5 49.5t-95.5 82t-58.5 94t-29.5 110.5t-11 108.5t-1 111v653q0 88 -32 108.5t-128 20.5zM444 1456l252 344h111l252 -344h-72l-235 215l-236 -215h-72z" />
<glyph unicode="&#xdc;" horiz-adv-x="1478" d="M43 1341v39l8 9q29 0 117 -4.5t135 -4.5t134 4.5t114 4.5l8 -9v-39l-8 -8q-51 0 -75.5 -4t-47 -17.5t-30 -49t-11.5 -85t-4 -139.5v-454q0 -59 1 -93t8 -94.5t21.5 -96.5t44 -82t71.5 -70.5t106.5 -43t148.5 -18.5q72 0 131.5 12.5t99.5 38t69.5 52t47 70.5t28.5 77 t15.5 86t5.5 81.5t1 82.5v407q0 86 -1 137.5t-10.5 92.5t-17.5 58t-33.5 30.5t-46 15.5t-69.5 6l-9 8v39l9 9q25 0 104.5 -4.5t122.5 -4.5q37 0 105.5 4.5t90.5 4.5l9 -9v-39l-9 -8q-8 -2 -54 -5t-54 -3q-51 -6 -51 -262v-598q0 -260 -144.5 -375t-375.5 -115 q-111 0 -198 20.5t-143.5 49.5t-95.5 82t-58.5 94t-29.5 110.5t-11 108.5t-1 111v653q0 88 -32 108.5t-128 20.5zM457 1587q0 41 27.5 69t68.5 28t68.5 -28t27.5 -69t-27.5 -68.5t-68.5 -27.5t-68.5 27.5t-27.5 68.5zM854 1587q0 41 27.5 69t68.5 28t69 -28t28 -69 t-28 -68.5t-69 -27.5t-68.5 27.5t-27.5 68.5z" />
<glyph unicode="&#xdd;" horiz-adv-x="1366" d="M53 1333q115 25 226 72q88 -31 162.5 -120t117.5 -175l217 -418l330 557q12 23 27.5 46.5t29 42t29.5 30.5t33 12h112v-39q-55 -8 -98 -61t-178 -266q-242 -379 -242 -439v-317q0 -117 6 -154q2 -14 17.5 -28.5t23.5 -16.5q10 -4 121 -12l8 -8v-39l-8 -8q-2 0 -88 4 q-90 4 -162 4q-76 0 -162 -4l-90 -4l-8 8v39l8 8q111 8 121 12q8 2 23.5 16.5t17.5 28.5q6 37 6 154v317q0 39 -104.5 219.5t-161.5 262.5q-53 78 -96 126t-78 69.5t-57.5 27.5t-53.5 6h-39zM534 1456l295 289q14 14 25.5 26.5t28 20.5t34.5 8q25 0 46.5 -19.5t21.5 -49.5 q0 -43 -35 -64l-344 -211h-72z" />
<glyph unicode="&#xde;" horiz-adv-x="1138" d="M82 0v39l8 8q111 8 121 12q8 2 23.5 16.5t17.5 28.5q6 37 6 154v864q0 117 -6 154q-2 14 -17.5 28.5t-23.5 16.5q-10 4 -121 12l-8 8v39l8 9q29 0 117 -4.5t135 -4.5t134 4.5t116 4.5l8 -9v-39l-8 -8q-111 -8 -121 -12q-8 -2 -23.5 -16.5t-17.5 -28.5q-6 -37 -6 -184 q111 14 287 14q53 0 90 -3t97 -20.5t98 -50.5t68 -99.5t30 -160.5q0 -164 -118 -289t-337 -125q-90 0 -129 27l-14 47l14 8q37 -18 111 -18q123 0 205.5 81t82.5 238q0 150 -78.5 217.5t-244.5 67.5q-70 0 -162 -6v-762q0 -117 6 -154q2 -14 17.5 -28.5t23.5 -16.5 q20 -8 145 -12l9 -8v-39l-9 -8q-23 0 -124 4t-150 4q-47 0 -135 -4t-117 -4z" />
<glyph unicode="&#xdf;" horiz-adv-x="1818" d="M100 655q0 127 107.5 214t288.5 87q139 0 264 -53l6 -12q-29 -82 -35 -168l-8 -8h-29l-8 8q0 72 -12 113q-88 57 -191 57q-119 0 -183 -55.5t-64 -130.5q0 -90 57 -125t160 -35q72 0 110.5 -2t93 -16.5t82 -40t49 -77t21.5 -126.5q0 -129 -120 -219.5t-277.5 -90.5 t-280.5 64l-6 10q20 78 31 187l8 8h29l8 -8q8 -104 14 -121q104 -76 213 -76q102 0 174 52t72 145q0 119 -63.5 150.5t-223.5 31.5q-287 0 -287 237zM1010 655q0 127 107.5 214t287.5 87q139 0 264 -53l6 -12q-29 -82 -35 -168l-8 -8h-28l-9 8q0 72 -12 113q-88 57 -190 57 q-119 0 -183.5 -55.5t-64.5 -130.5q0 -90 57.5 -125t159.5 -35q72 0 110.5 -2t93 -16.5t82 -40t49 -77t21.5 -126.5q0 -129 -119.5 -219.5t-277.5 -90.5t-281 64l-6 10q20 78 31 187l8 8h29l8 -8q8 -104 14 -121q104 -76 213 -76q102 0 174 52t72 145q0 119 -63.5 150.5 t-223.5 31.5q-287 0 -286 237z" />
<glyph unicode="&#xe0;" d="M12 0v31l8 8q53 0 79 30.5t79 161.5l291 711l8 6h49l9 -6l311 -747q43 -102 66.5 -128t91.5 -28l8 -8v-31l-8 -8q-12 0 -83 4t-110 4q-43 0 -120 -4t-95 -4l-8 8v31l8 8q119 0 119 45q0 31 -84 227q-16 0 -98 4t-94.5 4t-81 -4t-78.5 -4q-63 -168 -64 -213q0 -59 121 -59 l8 -8v-31l-8 -8q-10 0 -70.5 4t-95.5 4q-31 0 -85 -4t-65 -4zM211 1356q0 31 21.5 50t45.5 19q18 0 34.5 -8t28 -20.5t25.5 -26.5l295 -289h-72l-344 211q-35 20 -34 64zM301 373q12 0 59.5 -3t73.5 -3q2 0 174 6l-155 372z" />
<glyph unicode="&#xe1;" d="M12 0v31l8 8q53 0 79 30.5t79 161.5l291 711l8 6h49l9 -6l311 -747q43 -102 66.5 -128t91.5 -28l8 -8v-31l-8 -8q-12 0 -83 4t-110 4q-43 0 -120 -4t-95 -4l-8 8v31l8 8q119 0 119 45q0 31 -84 227q-16 0 -98 4t-94.5 4t-81 -4t-78.5 -4q-63 -168 -64 -213q0 -59 121 -59 l8 -8v-31l-8 -8q-10 0 -70.5 4t-95.5 4q-31 0 -85 -4t-65 -4zM301 373q12 0 59.5 -3t73.5 -3q2 0 174 6l-155 372zM362 1081l295 289q14 14 25.5 26.5t28 20.5t34.5 8q25 0 46.5 -19.5t21.5 -49.5q0 -43 -35 -64l-344 -211h-72z" />
<glyph unicode="&#xe2;" d="M12 0v31l8 8q53 0 79 30.5t79 161.5l291 711l8 6h49l9 -6l311 -747q43 -102 66.5 -128t91.5 -28l8 -8v-31l-8 -8q-12 0 -83 4t-110 4q-43 0 -120 -4t-95 -4l-8 8v31l8 8q119 0 119 45q0 31 -84 227q-16 0 -98 4t-94.5 4t-81 -4t-78.5 -4q-63 -168 -64 -213q0 -59 121 -59 l8 -8v-31l-8 -8q-10 0 -70.5 4t-95.5 4q-31 0 -85 -4t-65 -4zM204 1081l252 344h111l252 -344h-72l-235 215l-236 -215h-72zM301 373q12 0 59.5 -3t73.5 -3q2 0 174 6l-155 372z" />
<glyph unicode="&#xe3;" d="M12 0v31l8 8q53 0 79 30.5t79 161.5l291 711l8 6h49l9 -6l311 -747q43 -102 66.5 -128t91.5 -28l8 -8v-31l-8 -8q-12 0 -83 4t-110 4q-43 0 -120 -4t-95 -4l-8 8v31l8 8q119 0 119 45q0 31 -84 227q-16 0 -98 4t-94.5 4t-81 -4t-78.5 -4q-63 -168 -64 -213q0 -59 121 -59 l8 -8v-31l-8 -8q-10 0 -70.5 4t-95.5 4q-31 0 -85 -4t-65 -4zM182 1130q10 78 60.5 143.5t131.5 65.5q41 0 240 -71q68 -23 78 -23q67 0 94 98h55q-39 -209 -192 -208q-35 0 -62.5 9t-132.5 52q-76 33 -110 33q-78 0 -107 -99h-55zM301 373q12 0 59.5 -3t73.5 -3q2 0 174 6 l-155 372z" />
<glyph unicode="&#xe4;" d="M12 0v31l8 8q53 0 79 30.5t79 161.5l291 711l8 6h49l9 -6l311 -747q43 -102 66.5 -128t91.5 -28l8 -8v-31l-8 -8q-12 0 -83 4t-110 4q-43 0 -120 -4t-95 -4l-8 8v31l8 8q119 0 119 45q0 31 -84 227q-16 0 -98 4t-94.5 4t-81 -4t-78.5 -4q-63 -168 -64 -213q0 -59 121 -59 l8 -8v-31l-8 -8q-10 0 -70.5 4t-95.5 4q-31 0 -85 -4t-65 -4zM217 1212q0 41 27.5 69t68.5 28t68.5 -28t27.5 -69t-27.5 -68.5t-68.5 -27.5t-68.5 27.5t-27.5 68.5zM301 373q12 0 59.5 -3t73.5 -3q2 0 174 6l-155 372zM614 1212q0 41 27.5 69t68.5 28t69 -28t28 -69 t-28 -68.5t-69 -27.5t-68.5 27.5t-27.5 68.5z" />
<glyph unicode="&#xe5;" d="M12 0v31l8 8q53 0 79 30.5t79 161.5l291 711l8 6h49l9 -6l311 -747q43 -102 66.5 -128t91.5 -28l8 -8v-31l-8 -8q-12 0 -83 4t-110 4q-43 0 -120 -4t-95 -4l-8 8v31l8 8q119 0 119 45q0 31 -84 227q-16 0 -98 4t-94.5 4t-81 -4t-78.5 -4q-63 -168 -64 -213q0 -59 121 -59 l8 -8v-31l-8 -8q-10 0 -70.5 4t-95.5 4q-31 0 -85 -4t-65 -4zM301 373q12 0 59.5 -3t73.5 -3q2 0 174 6l-155 372zM307 1208q0 92 59.5 145.5t145.5 53.5t145 -53.5t59 -145.5t-59 -145t-145 -53t-145.5 53t-59.5 145zM387 1208q0 -86 38 -121.5t87 -35.5t87 36.5t38 120.5 t-38 121t-87 37t-87 -36t-38 -122z" />
<glyph unicode="&#xe6;" horiz-adv-x="1366" d="M12 0v31l8 8q39 8 67 30.5t65 88.5l161 303l86 160q111 207 136 258q-59 10 -138 16l-16 8v29l14 8q51 0 212 -4t243 -4q33 0 169 4t204 4l20 -8q-23 -127 -22 -184l-9 -13h-28l-10 6q-4 59 -27 97q-102 31 -217 30q-57 0 -105 -6q-10 -96 -10 -211v-112q47 -10 162 -11 q111 0 188 23l13 -14v-72l-13 -12q-80 12 -258 12q-61 0 -76.5 -3t-15.5 -18v-133q0 -145 16 -233q90 -14 160 -15q102 0 183 23l51 123l12 8h33l6 -8q-16 -51 -23 -203l-12 -14q-162 8 -375 8q-180 0 -293 -8l-8 8v31l8 8q59 10 78 31q16 20 17 309q-123 6 -170 6 q-27 0 -150 -6q-129 -225 -129 -293q0 -23 25.5 -32t91.5 -15l8 -8v-31l-8 -8q-78 8 -146 8q-35 0 -170 -8zM379 440h289v340q0 57 -8.5 72.5t-28.5 15.5q-16 0 -47 -49t-82 -145z" />
<glyph unicode="&#xe7;" d="M94 453q0 213 139.5 358t389.5 145q170 0 327 -67l6 -12q-16 -47 -30 -175l-11 -8h-30l-8 8q0 63 -13 109q-100 82 -241 82q-176 0 -272.5 -125t-96.5 -303q0 -168 107.5 -297t289.5 -129q74 0 129.5 24.5t122.5 81.5l12 2l17 -8l4 -10l-35 -98q-106 -51 -276 -56 l-35 -84q29 12 53 13q41 0 69.5 -28t28.5 -71q0 -59 -47 -88.5t-110 -29.5q-72 0 -121 24l18 39q66 -16 88 -16q43 0 64.5 17.5t21.5 37.5q0 59 -73 59q-25 0 -41 -8l-21 8l58 127q-242 12 -363 148.5t-121 329.5z" />
<glyph unicode="&#xe8;" horiz-adv-x="909" d="M53 901v31l8 8q33 -2 125 -6q59 -2 207 -2q33 0 169 4t204 4l20 -8q-23 -127 -22 -184l-8 -13h-29l-10 6q-4 59 -27 97q-102 31 -217 30q-59 0 -104 -6q-10 -96 -11 -211v-112q47 -10 162 -11q111 0 189 23l12 -14v-72l-12 -12q-80 12 -258 12q-61 0 -77 -3t-16 -18v-133 q0 -145 17 -233q90 -14 160 -15q102 0 182 23l51 123l12 8h33l6 -8q-16 -51 -22 -203l-13 -14q-162 8 -374 8q-180 0 -293 -8l-8 8v31l8 8q59 10 78 31q16 20 16 327v262q0 164 -6 179q-14 29 -31 36q-31 18 -113 19zM154 1356q0 31 21.5 50t45.5 19q18 0 34.5 -8t28 -20.5 t25.5 -26.5l295 -289h-72l-344 211q-35 20 -34 64z" />
<glyph unicode="&#xe9;" horiz-adv-x="909" d="M53 901v31l8 8q33 -2 125 -6q59 -2 207 -2q33 0 169 4t204 4l20 -8q-23 -127 -22 -184l-8 -13h-29l-10 6q-4 59 -27 97q-102 31 -217 30q-59 0 -104 -6q-10 -96 -11 -211v-112q47 -10 162 -11q111 0 189 23l12 -14v-72l-12 -12q-80 12 -258 12q-61 0 -77 -3t-16 -18v-133 q0 -145 17 -233q90 -14 160 -15q102 0 182 23l51 123l12 8h33l6 -8q-16 -51 -22 -203l-13 -14q-162 8 -374 8q-180 0 -293 -8l-8 8v31l8 8q59 10 78 31q16 20 16 327v262q0 164 -6 179q-14 29 -31 36q-31 18 -113 19zM305 1081l295 289q14 14 25.5 26.5t28 20.5t34.5 8 q25 0 46.5 -19.5t21.5 -49.5q0 -43 -35 -64l-344 -211h-72z" />
<glyph unicode="&#xea;" horiz-adv-x="909" d="M53 901v31l8 8q33 -2 125 -6q59 -2 207 -2q33 0 169 4t204 4l20 -8q-23 -127 -22 -184l-8 -13h-29l-10 6q-4 59 -27 97q-102 31 -217 30q-59 0 -104 -6q-10 -96 -11 -211v-112q47 -10 162 -11q111 0 189 23l12 -14v-72l-12 -12q-80 12 -258 12q-61 0 -77 -3t-16 -18v-133 q0 -145 17 -233q90 -14 160 -15q102 0 182 23l51 123l12 8h33l6 -8q-16 -51 -22 -203l-13 -14q-162 8 -374 8q-180 0 -293 -8l-8 8v31l8 8q59 10 78 31q16 20 16 327v262q0 164 -6 179q-14 29 -31 36q-31 18 -113 19zM147 1081l252 344h111l252 -344h-72l-235 215l-236 -215 h-72z" />
<glyph unicode="&#xeb;" horiz-adv-x="909" d="M53 901v31l8 8q33 -2 125 -6q59 -2 207 -2q33 0 169 4t204 4l20 -8q-23 -127 -22 -184l-8 -13h-29l-10 6q-4 59 -27 97q-102 31 -217 30q-59 0 -104 -6q-10 -96 -11 -211v-112q47 -10 162 -11q111 0 189 23l12 -14v-72l-12 -12q-80 12 -258 12q-61 0 -77 -3t-16 -18v-133 q0 -145 17 -233q90 -14 160 -15q102 0 182 23l51 123l12 8h33l6 -8q-16 -51 -22 -203l-13 -14q-162 8 -374 8q-180 0 -293 -8l-8 8v31l8 8q59 10 78 31q16 20 16 327v262q0 164 -6 179q-14 29 -31 36q-31 18 -113 19zM160 1212q0 41 27.5 69t68.5 28t68.5 -28t27.5 -69 t-27.5 -68.5t-68.5 -27.5t-68.5 27.5t-27.5 68.5zM557 1212q0 41 27.5 69t68.5 28t69 -28t28 -69t-28 -68.5t-69 -27.5t-68.5 27.5t-27.5 68.5z" />
<glyph unicode="&#xec;" horiz-adv-x="569" d="M-16 1356q0 31 21.5 50t45.5 19q18 0 34.5 -8t28 -20.5t25.5 -26.5l295 -289h-72l-344 211q-35 20 -34 64zM45 0v31l8 8q90 0 113 16q16 10 29 25q16 21 16 211v393q0 162 -29 184q-8 6 -49 15.5t-80 9.5l-8 8v31l8 8q18 0 101.5 -4t130.5 -4t130 4t101 4l8 -8v-31l-8 -8 q-39 0 -80 -9.5t-49 -15.5q-29 -23 -29 -184v-393q0 -190 17 -211q12 -14 28 -25q23 -16 113 -16l8 -8v-31l-8 -8q-18 0 -101 4t-130 4t-130 -4t-102 -4z" />
<glyph unicode="&#xed;" horiz-adv-x="569" d="M45 0v31l8 8q90 0 113 16q16 10 29 25q16 21 16 211v393q0 162 -29 184q-8 6 -49 15.5t-80 9.5l-8 8v31l8 8q18 0 101.5 -4t130.5 -4t130 4t101 4l8 -8v-31l-8 -8q-39 0 -80 -9.5t-49 -15.5q-29 -23 -29 -184v-393q0 -190 17 -211q12 -14 28 -25q23 -16 113 -16l8 -8v-31 l-8 -8q-18 0 -101 4t-130 4t-130 -4t-102 -4zM135 1081l295 289q14 14 25.5 26.5t28 20.5t34.5 8q25 0 46.5 -19.5t21.5 -49.5q0 -43 -35 -64l-344 -211h-72z" />
<glyph unicode="&#xee;" horiz-adv-x="569" d="M-23 1081l252 344h111l252 -344h-72l-235 215l-236 -215h-72zM45 0v31l8 8q90 0 113 16q16 10 29 25q16 21 16 211v393q0 162 -29 184q-8 6 -49 15.5t-80 9.5l-8 8v31l8 8q18 0 101.5 -4t130.5 -4t130 4t101 4l8 -8v-31l-8 -8q-39 0 -80 -9.5t-49 -15.5q-29 -23 -29 -184 v-393q0 -190 17 -211q12 -14 28 -25q23 -16 113 -16l8 -8v-31l-8 -8q-18 0 -101 4t-130 4t-130 -4t-102 -4z" />
<glyph unicode="&#xef;" horiz-adv-x="569" d="M-10 1212q0 41 27.5 69t68.5 28t68.5 -28t27.5 -69t-27.5 -68.5t-68.5 -27.5t-68.5 27.5t-27.5 68.5zM45 0v31l8 8q90 0 113 16q16 10 29 25q16 21 16 211v393q0 162 -29 184q-8 6 -49 15.5t-80 9.5l-8 8v31l8 8q18 0 101.5 -4t130.5 -4t130 4t101 4l8 -8v-31l-8 -8 q-39 0 -80 -9.5t-49 -15.5q-29 -23 -29 -184v-393q0 -190 17 -211q12 -14 28 -25q23 -16 113 -16l8 -8v-31l-8 -8q-18 0 -101 4t-130 4t-130 -4t-102 -4zM387 1212q0 41 27.5 69t68.5 28t69 -28t28 -69t-28 -68.5t-69 -27.5t-68.5 27.5t-27.5 68.5z" />
<glyph unicode="&#xf0;" horiz-adv-x="1251" d="M63 471v39l9 8h157v141q0 164 -6 179q-14 29 -30 36q-31 18 -113 19l-8 8v31l8 8q8 0 92 -4t131 -4q72 0 201 4t176 4q211 0 338 -107.5t127 -314.5q0 -100 -33 -191t-98.5 -168t-180 -122t-262.5 -45q-35 0 -122 4t-132 4q-76 0 -182 -8l-8 8v31l8 8q59 10 78 31 q16 20 16 327v66h-157zM377 276q0 -150 10 -184q94 -37 191 -37q401 0 401 443q0 387 -389 387q-88 0 -203 -19q-10 -81 -10 -192v-156h266l8 -8v-39l-8 -8h-266v-187z" />
<glyph unicode="&#xf1;" horiz-adv-x="1251" d="M68 0v31l8 8q76 0 98 16q16 10 29 25q16 21 16 211v454q0 100 -45 127q-33 20 -98 21l-8 8v31l8 8q98 -8 157 -8q39 0 117 8q51 -70 611 -707v408q0 190 -17 211q-12 14 -29 25q-23 16 -98 16l-8 8v31l8 8q98 -8 174 -8q86 0 185 8l8 -8v-31l-8 -8q-76 0 -99 -16 q-16 -10 -28 -25q-16 -20 -17 -211v-516q0 -100 6 -133h-77q-156 199 -670 768v-469q0 -190 16 -211q12 -14 29 -25q23 -16 98 -16l8 -8v-31l-8 -8q-98 8 -174 8q-86 0 -184 -8zM297 1130q10 78 60.5 143.5t131.5 65.5q41 0 240 -71q68 -23 78 -23q67 0 94 98h55 q-39 -209 -192 -208q-35 0 -62.5 9t-132.5 52q-76 33 -110 33q-78 0 -107 -99h-55z" />
<glyph unicode="&#xf2;" horiz-adv-x="1251" d="M106 465q0 236 140.5 363.5t378.5 127.5q254 0 387 -122.5t133 -346.5q0 -227 -147.5 -369.5t-372.5 -142.5q-238 0 -378.5 131.5t-140.5 358.5zM272 496q0 -225 94.5 -345t258.5 -120q178 0 266 120t88 300q0 201 -86 325.5t-268 124.5q-352 0 -353 -405zM326 1356 q0 31 21.5 50t45.5 19q18 0 34.5 -8t28 -20.5t25.5 -26.5l295 -289h-72l-344 211q-35 20 -34 64z" />
<glyph unicode="&#xf3;" horiz-adv-x="1251" d="M106 465q0 236 140.5 363.5t378.5 127.5q254 0 387 -122.5t133 -346.5q0 -227 -147.5 -369.5t-372.5 -142.5q-238 0 -378.5 131.5t-140.5 358.5zM272 496q0 -225 94.5 -345t258.5 -120q178 0 266 120t88 300q0 201 -86 325.5t-268 124.5q-352 0 -353 -405zM477 1081 l295 289q14 14 25.5 26.5t28 20.5t34.5 8q25 0 46.5 -19.5t21.5 -49.5q0 -43 -35 -64l-344 -211h-72z" />
<glyph unicode="&#xf4;" horiz-adv-x="1251" d="M106 465q0 236 140.5 363.5t378.5 127.5q254 0 387 -122.5t133 -346.5q0 -227 -147.5 -369.5t-372.5 -142.5q-238 0 -378.5 131.5t-140.5 358.5zM272 496q0 -225 94.5 -345t258.5 -120q178 0 266 120t88 300q0 201 -86 325.5t-268 124.5q-352 0 -353 -405zM319 1081 l252 344h111l252 -344h-72l-235 215l-236 -215h-72z" />
<glyph unicode="&#xf5;" horiz-adv-x="1251" d="M106 465q0 236 140.5 363.5t378.5 127.5q254 0 387 -122.5t133 -346.5q0 -227 -147.5 -369.5t-372.5 -142.5q-238 0 -378.5 131.5t-140.5 358.5zM272 496q0 -225 94.5 -345t258.5 -120q178 0 266 120t88 300q0 201 -86 325.5t-268 124.5q-352 0 -353 -405zM297 1130 q10 78 60.5 143.5t131.5 65.5q41 0 240 -71q68 -23 78 -23q67 0 94 98h55q-39 -209 -192 -208q-35 0 -62.5 9t-132.5 52q-76 33 -110 33q-78 0 -107 -99h-55z" />
<glyph unicode="&#xf6;" horiz-adv-x="1251" d="M106 465q0 236 140.5 363.5t378.5 127.5q254 0 387 -122.5t133 -346.5q0 -227 -147.5 -369.5t-372.5 -142.5q-238 0 -378.5 131.5t-140.5 358.5zM272 496q0 -225 94.5 -345t258.5 -120q178 0 266 120t88 300q0 201 -86 325.5t-268 124.5q-352 0 -353 -405zM332 1212 q0 41 27.5 69t68.5 28t68.5 -28t27.5 -69t-27.5 -68.5t-68.5 -27.5t-68.5 27.5t-27.5 68.5zM729 1212q0 41 27.5 69t68.5 28t69 -28t28 -69t-28 -68.5t-69 -27.5t-68.5 27.5t-27.5 68.5z" />
<glyph unicode="&#xf7;" horiz-adv-x="1228" d="M96 469v98h1037v-98h-1037zM500 90q0 47 33.5 81t81 34t81 -34t33.5 -81t-33.5 -81t-81 -34t-81 34t-33.5 81zM500 946q0 47 33.5 81t81 34t81 -34t33.5 -81t-33.5 -81t-81 -34t-81 34t-33.5 81z" />
<glyph unicode="&#xf8;" horiz-adv-x="1251" d="M106 465q0 236 140.5 363.5t378.5 127.5q88 0 151 -14l51 123h76l-57 -139q299 -96 299 -439q0 -227 -147.5 -369.5t-372.5 -142.5q-92 0 -166 21l-47 -115h-76l57 137q-135 49 -211 166t-76 281zM272 496q0 -289 154 -400l326 785q-61 20 -127 20q-352 0 -353 -405z M485 59q63 -29 140 -28q178 0 266 119.5t88 300.5q0 295 -166 397z" />
<glyph unicode="&#xf9;" horiz-adv-x="1138" d="M51 901v31l8 8q8 0 92.5 -4t131.5 -4q35 0 74.5 1t81.5 4t59 3l8 -8v-31l-8 -8q-74 0 -97 -16q-16 -10 -28 -25q-16 -20 -17 -211v-350q0 -102 64.5 -166t169.5 -64q121 0 194.5 62.5t73.5 222.5v309q0 102 -12 147.5t-39 62t-94 28.5l-8 8v31l8 8q123 -8 182 -8 q57 0 184 8l8 -8v-31l-8 -8q-68 0 -112 -29q-37 -41 -37 -209v-313q0 -182 -91 -274.5t-255 -92.5q-188 0 -281.5 76t-93.5 215v375q0 190 -16 211q-12 14 -29 25q-23 16 -105 16zM269 1356q0 31 21.5 50t45.5 19q18 0 34.5 -8t28 -20.5t25.5 -26.5l295 -289h-72l-344 211 q-35 20 -34 64z" />
<glyph unicode="&#xfa;" horiz-adv-x="1138" d="M51 901v31l8 8q8 0 92.5 -4t131.5 -4q35 0 74.5 1t81.5 4t59 3l8 -8v-31l-8 -8q-74 0 -97 -16q-16 -10 -28 -25q-16 -20 -17 -211v-350q0 -102 64.5 -166t169.5 -64q121 0 194.5 62.5t73.5 222.5v309q0 102 -12 147.5t-39 62t-94 28.5l-8 8v31l8 8q123 -8 182 -8 q57 0 184 8l8 -8v-31l-8 -8q-68 0 -112 -29q-37 -41 -37 -209v-313q0 -182 -91 -274.5t-255 -92.5q-188 0 -281.5 76t-93.5 215v375q0 190 -16 211q-12 14 -29 25q-23 16 -105 16zM420 1081l295 289q14 14 25.5 26.5t28 20.5t34.5 8q25 0 46.5 -19.5t21.5 -49.5 q0 -43 -35 -64l-344 -211h-72z" />
<glyph unicode="&#xfb;" horiz-adv-x="1138" d="M51 901v31l8 8q8 0 92.5 -4t131.5 -4q35 0 74.5 1t81.5 4t59 3l8 -8v-31l-8 -8q-74 0 -97 -16q-16 -10 -28 -25q-16 -20 -17 -211v-350q0 -102 64.5 -166t169.5 -64q121 0 194.5 62.5t73.5 222.5v309q0 102 -12 147.5t-39 62t-94 28.5l-8 8v31l8 8q123 -8 182 -8 q57 0 184 8l8 -8v-31l-8 -8q-68 0 -112 -29q-37 -41 -37 -209v-313q0 -182 -91 -274.5t-255 -92.5q-188 0 -281.5 76t-93.5 215v375q0 190 -16 211q-12 14 -29 25q-23 16 -105 16zM262 1081l252 344h111l252 -344h-72l-235 215l-236 -215h-72z" />
<glyph unicode="&#xfc;" horiz-adv-x="1138" d="M51 901v31l8 8q8 0 92.5 -4t131.5 -4q35 0 74.5 1t81.5 4t59 3l8 -8v-31l-8 -8q-74 0 -97 -16q-16 -10 -28 -25q-16 -20 -17 -211v-350q0 -102 64.5 -166t169.5 -64q121 0 194.5 62.5t73.5 222.5v309q0 102 -12 147.5t-39 62t-94 28.5l-8 8v31l8 8q123 -8 182 -8 q57 0 184 8l8 -8v-31l-8 -8q-68 0 -112 -29q-37 -41 -37 -209v-313q0 -182 -91 -274.5t-255 -92.5q-188 0 -281.5 76t-93.5 215v375q0 190 -16 211q-12 14 -29 25q-23 16 -105 16zM275 1212q0 41 27.5 69t68.5 28t68.5 -28t27.5 -69t-27.5 -68.5t-68.5 -27.5t-68.5 27.5 t-27.5 68.5zM672 1212q0 41 27.5 69t68.5 28t69 -28t28 -69t-28 -68.5t-69 -27.5t-68.5 27.5t-27.5 68.5z" />
<glyph unicode="&#xfd;" horiz-adv-x="909" d="M4 872l180 76q74 0 165 -147.5t145 -311.5q180 309 272 451h119v-31q-86 -82 -171 -198.5t-132 -210.5q-23 -49 -29 -82t-6 -127q0 -190 16 -211q12 -14 29 -25q23 -16 113 -16l8 -8v-31l-8 -8q-18 0 -101.5 4t-130.5 4t-130 -4t-101 -4l-9 8v31l9 8q90 0 112 16 q16 10 29 25q16 21 16 211v49q0 61 -60 181t-140 218.5t-127 98.5q-16 0 -54 -7zM305 1081l295 289q14 14 25.5 26.5t28 20.5t34.5 8q25 0 46.5 -19.5t21.5 -49.5q0 -43 -35 -64l-344 -211h-72z" />
<glyph unicode="&#xfe;" horiz-adv-x="909" d="M76 0v31l8 8q78 0 100 16q16 10 29 25q16 21 16 211v393q0 162 -28 184q-8 6 -47 15.5t-70 9.5l-8 8v31l8 8q2 0 87 -4t132 -4t132 4t87 4l8 -8v-31l-8 -8q-31 0 -69.5 -9.5t-46.5 -15.5q-29 -23 -29 -139q43 0 110.5 3t96.5 3q117 0 197.5 -57t80.5 -168 q0 -135 -88 -211t-233 -76q-55 0 -97 8l-8 50l8 6q27 -16 80 -17q80 0 132.5 55.5t52.5 139.5q0 102 -53.5 154.5t-147.5 52.5q-53 0 -131 -19v-362q0 -190 16 -211q12 -14 29 -25q23 -16 113 -16l8 -8v-31l-8 -8q-18 0 -101.5 4t-130.5 4t-132 -4t-87 -4z" />
<glyph unicode="&#xff;" horiz-adv-x="909" d="M4 872l180 76q74 0 165 -147.5t145 -311.5q180 309 272 451h119v-31q-86 -82 -171 -198.5t-132 -210.5q-23 -49 -29 -82t-6 -127q0 -190 16 -211q12 -14 29 -25q23 -16 113 -16l8 -8v-31l-8 -8q-18 0 -101.5 4t-130.5 4t-130 -4t-101 -4l-9 8v31l9 8q90 0 112 16 q16 10 29 25q16 21 16 211v49q0 61 -60 181t-140 218.5t-127 98.5q-16 0 -54 -7zM160 1212q0 41 27.5 69t68.5 28t68.5 -28t27.5 -69t-27.5 -68.5t-68.5 -27.5t-68.5 27.5t-27.5 68.5zM557 1212q0 41 27.5 69t68.5 28t69 -28t28 -69t-28 -68.5t-69 -27.5t-68.5 27.5 t-27.5 68.5z" />
<glyph unicode="&#x152;" horiz-adv-x="2048" d="M72 688q0 176 55 315.5t150.5 225.5t217 131t263.5 45q160 0 290 -70.5t187 -167.5h4q0 154 -31 197l11 25q18 0 131.5 -4.5t183.5 -4.5q63 0 194.5 4.5t176.5 4.5l34 -25l-16 -236h-33l-8 9q0 25 -15.5 71.5t-31.5 67.5q-94 27 -227 27q-188 0 -205 -13 q-12 -119 -12 -272q0 -2 6 -242q41 -8 188 -8q182 0 279 29l8 -9v-110l-8 -8q-41 18 -234 18q-80 0 -211 -8l-22 -23q-6 -147 -6 -149q0 -201 12 -418q94 -12 215 -12q184 0 270 31q37 76 60 155h49q-16 -197 -17 -248l-24 -24q-164 8 -367 8q-84 0 -370 -8l-11 20 q16 88 17 144v65h-6q-139 -133 -243 -189.5t-267 -56.5q-289 0 -463 192.5t-174 520.5zM264 739q0 -170 38 -299t92.5 -198.5t127 -112.5t126.5 -55.5t108 -12.5q41 0 87 8.5t118.5 46.5t127 100.5t95.5 186t41 289.5q0 627 -482 627q-215 0 -347 -143.5t-132 -436.5z" />
<glyph unicode="&#x153;" horiz-adv-x="1593" d="M90 465q0 233 140.5 362t347.5 129q106 0 190 -45t112.5 -80.5t34.5 -52.5h5q-2 25 -12.5 84.5t-10.5 63.5l8 14q43 0 131 -4t133 -4q57 0 161 4t138 4l21 -8q-23 -127 -23 -184l-8 -13h-28l-11 6q-4 59 -26 97q-102 31 -217 30q-57 0 -105 -6q-10 -96 -10 -211v-112 q47 -10 162 -11q111 0 188 23l12 -14v-72l-12 -12q-80 12 -258 12q-61 0 -76.5 -3t-15.5 -18v-133q0 -145 16 -233q90 -14 160 -15q102 0 182 23l51 123l13 8h33l6 -8q-16 -51 -23 -203l-12 -14q-162 8 -326 8q-137 0 -246 -8l-16 14q14 59 21 154h-5q-37 -51 -70.5 -85 t-105 -67t-161.5 -33q-233 0 -360.5 142.5t-127.5 347.5zM256 494q0 -207 95 -335t227 -128q174 0 254.5 128t80.5 308q0 207 -91 320.5t-244 113.5q-160 0 -241 -116.5t-81 -290.5z" />
<glyph unicode="&#x178;" horiz-adv-x="1366" d="M53 1333q115 25 226 72q88 -31 162.5 -120t117.5 -175l217 -418l330 557q12 23 27.5 46.5t29 42t29.5 30.5t33 12h112v-39q-55 -8 -98 -61t-178 -266q-242 -379 -242 -439v-317q0 -117 6 -154q2 -14 17.5 -28.5t23.5 -16.5q10 -4 121 -12l8 -8v-39l-8 -8q-2 0 -88 4 q-90 4 -162 4q-76 0 -162 -4l-90 -4l-8 8v39l8 8q111 8 121 12q8 2 23.5 16.5t17.5 28.5q6 37 6 154v317q0 39 -104.5 219.5t-161.5 262.5q-53 78 -96 126t-78 69.5t-57.5 27.5t-53.5 6h-39zM414 1587q0 41 27.5 69t68.5 28t68.5 -28t27.5 -69t-27.5 -68.5t-68.5 -27.5 t-68.5 27.5t-27.5 68.5zM811 1587q0 41 27.5 69t68.5 28t69 -28t28 -69t-28 -68.5t-69 -27.5t-68.5 27.5t-27.5 68.5z" />
<glyph unicode="&#x2c6;" horiz-adv-x="569" d="M-23 1081l252 344h111l252 -344h-72l-235 215l-236 -215h-72z" />
<glyph unicode="&#x2dc;" horiz-adv-x="569" d="M-45 1130q10 78 60.5 143.5t131.5 65.5q41 0 240 -71q68 -23 78 -23q67 0 94 98h55q-39 -209 -192 -208q-35 0 -62.5 9t-132.5 52q-76 33 -110 33q-78 0 -107 -99h-55z" />
<glyph unicode="&#x2000;" horiz-adv-x="911" />
<glyph unicode="&#x2001;" horiz-adv-x="1823" />
<glyph unicode="&#x2002;" horiz-adv-x="911" />
<glyph unicode="&#x2003;" horiz-adv-x="1823" />
<glyph unicode="&#x2004;" horiz-adv-x="607" />
<glyph unicode="&#x2005;" horiz-adv-x="455" />
<glyph unicode="&#x2006;" horiz-adv-x="303" />
<glyph unicode="&#x2007;" horiz-adv-x="303" />
<glyph unicode="&#x2008;" horiz-adv-x="227" />
<glyph unicode="&#x2009;" horiz-adv-x="364" />
<glyph unicode="&#x200a;" horiz-adv-x="101" />
<glyph unicode="&#x2010;" horiz-adv-x="796" d="M102 428q20 29 41 125q33 0 90.5 -2t104.5 -3t88 -1q43 0 129 3t129 3l10 -16q-16 -10 -29.5 -52.5t-13.5 -72.5q-252 6 -254 6q-41 0 -89 -1t-105.5 -3t-89.5 -2z" />
<glyph unicode="&#x2011;" horiz-adv-x="796" d="M102 428q20 29 41 125q33 0 90.5 -2t104.5 -3t88 -1q43 0 129 3t129 3l10 -16q-16 -10 -29.5 -52.5t-13.5 -72.5q-252 6 -254 6q-41 0 -89 -1t-105.5 -3t-89.5 -2z" />
<glyph unicode="&#x2012;" horiz-adv-x="796" d="M102 428q20 29 41 125q33 0 90.5 -2t104.5 -3t88 -1q43 0 129 3t129 3l10 -16q-16 -10 -29.5 -52.5t-13.5 -72.5q-252 6 -254 6q-41 0 -89 -1t-105.5 -3t-89.5 -2z" />
<glyph unicode="&#x2013;" d="M0 428v111h1024v-111h-1024z" />
<glyph unicode="&#x2014;" horiz-adv-x="2048" d="M0 428v111h2048v-111h-2048z" />
<glyph unicode="&#x2018;" horiz-adv-x="569" d="M115 907q0 16 45 90l250 404l6 4l35 -10l4 -9l-164 -452q-27 -74 -101 -74q-76 0 -75 47z" />
<glyph unicode="&#x2019;" horiz-adv-x="569" d="M115 879l164 452q27 74 100 74q76 0 76 -47q0 -16 -45 -90l-250 -404l-6 -4l-35 10z" />
<glyph unicode="&#x201a;" horiz-adv-x="569" d="M115 -285l164 453q27 74 100 74q76 0 76 -47q0 -17 -45 -91l-250 -403l-6 -4l-35 10z" />
<glyph unicode="&#x201c;" d="M158 907q0 16 45 90l250 404l6 4l35 -10l4 -9l-164 -452q-27 -74 -101 -74q-76 0 -75 47zM526 907q0 16 45 90l250 404l6 4l35 -10l4 -9l-164 -452q-27 -74 -100 -74q-76 0 -76 47z" />
<glyph unicode="&#x201d;" d="M158 879l164 452q27 74 100 74q76 0 76 -47q0 -16 -45 -90l-250 -404l-6 -4l-35 10zM526 879l164 452q27 74 101 74q76 0 75 -47q0 -16 -45 -90l-250 -404l-6 -4l-35 10z" />
<glyph unicode="&#x201e;" d="M158 -285l164 453q27 74 100 74q76 0 76 -47q0 -17 -45 -91l-250 -403l-6 -4l-35 10zM526 -285l164 453q27 74 101 74q76 0 75 -47q0 -17 -45 -91l-250 -403l-6 -4l-35 10z" />
<glyph unicode="&#x2022;" d="M166 692.5q0 143.5 101.5 244.5t244.5 101t244.5 -101t101.5 -244.5t-101.5 -245t-244.5 -101.5t-244.5 101.5t-101.5 245z" />
<glyph unicode="&#x2026;" horiz-adv-x="2048" d="M236 90q0 45 30.5 76t75.5 31t76 -31t31 -76t-31 -75.5t-76 -30.5t-75.5 30.5t-30.5 75.5zM918 90q0 45 30.5 76t75.5 31t75.5 -31t30.5 -76t-30.5 -75.5t-75.5 -30.5t-75.5 30.5t-30.5 75.5zM1599 90q0 45 31 76t76 31t75.5 -31t30.5 -76t-30.5 -75.5t-75.5 -30.5 t-76 30.5t-31 75.5z" />
<glyph unicode="&#x202f;" horiz-adv-x="364" />
<glyph unicode="&#x2039;" horiz-adv-x="569" d="M92 444q0 29 23 52l321 340l41 -17v-8l-266 -367l266 -366v-8l-41 -17l-311 336q-33 37 -33 55z" />
<glyph unicode="&#x203a;" horiz-adv-x="569" d="M92 70v8l266 366l-266 367v8l41 17l311 -336q33 -37 33 -56q0 -29 -22 -51l-322 -340z" />
<glyph unicode="&#x205f;" horiz-adv-x="455" />
<glyph unicode="&#x2122;" horiz-adv-x="2027" d="M45 1200v180h684v-180h-41q-29 139 -139 139h-107v-669q0 -43 18.5 -55.5t88.5 -20.5v-41h-324v41q70 8 88.5 20.5t18.5 55.5v669h-107q-111 0 -139 -139h-41zM823 1339v41h224l329 -659l336 659h197v-41q-117 0 -117 -114v-561q0 -41 15.5 -51.5t86.5 -18.5v-41h-321v41 q76 8 92 18.5t16 51.5v534h-4l-325 -645h-19l-319 639h-4v-490q0 -51 22.5 -77.5t83.5 -30.5v-41h-262v41q63 4 85 30.5t22 77.5v541q0 20 -38 58t-100 38z" />
<glyph unicode="&#xe000;" horiz-adv-x="942" d="M0 0v942h942v-942h-942z" />
</font>
</defs>
</svg>
